<?xml version="1.0" standalone="no"?>
<!DOCTYPE svg PUBLIC "-//W3C//DTD SVG 20010904//EN"
 "http://www.w3.org/TR/2001/REC-SVG-20010904/DTD/svg10.dtd">
<svg version="1.0" xmlns="http://www.w3.org/2000/svg"
 width="43.000000pt" height="37.000000pt" viewBox="0 0 43.000000 37.000000"
 preserveAspectRatio="xMidYMid meet">
<metadata>
Created by potrace 1.15, written by Peter Selinger 2001-2017
</metadata>
<g transform="translate(0.000000,37.000000) scale(0.100000,-0.100000)"
fill="#000000" stroke="none">
<path d="M274 326 c31 -38 36 -52 36 -95 0 -39 -4 -51 -15 -51 -11 0 -15 11
-15 40 l0 40 -130 0 -130 0 0 -100 0 -100 94 0 c90 0 95 1 98 23 3 19 10 22
56 25 42 2 52 6 52 21 0 36 68 69 85 41 18 -28 25 0 25 95 l0 105 -96 0 -96 0
36 -44z"/>
</g>
</svg>
