<svg width="21" height="15" fill="none" xmlns="http://www.w3.org/2000/svg"><path fill-rule="evenodd" clip-rule="evenodd" d="M2.734 1.318a1 1 0 10-1.961.392l.129.647A3.928 3.928 0 007.753 4.12a3.925 3.925 0 006 0 3.928 3.928 0 006.851-1.765l.13-.646a1 1 0 00-1.962-.392l-.129.646a1.928 1.928 0 01-3.78 0l-.125-.623a1.007 1.007 0 00-.64-.766.994.994 0 00-.69 0 1 1 0 00-.64.766l-.125.623a1.928 1.928 0 01-3.78 0l-.125-.624a1.003 1.003 0 00-.985-.826 1 1 0 00-.985.826l-.125.624a1.928 1.928 0 01-3.78 0l-.13-.646zm0 9a1 1 0 00-1.961.392l.129.647a3.928 3.928 0 006.851 1.764 3.926 3.926 0 006 0 3.928 3.928 0 006.851-1.765l.13-.646a1 1 0 00-1.962-.392l-.129.646a1.928 1.928 0 01-3.78 0l-.125-.623a1.004 1.004 0 00-.985-.827 1 1 0 00-.985.827l-.125.623a1.928 1.928 0 01-3.78 0l-.125-.623a1 1 0 00-1.97 0l-.125.623a1.928 1.928 0 01-3.78 0l-.13-.646z" fill="#839393"/></svg>