<svg width="21" height="19" fill="none" xmlns="http://www.w3.org/2000/svg"><path fill-rule="evenodd" clip-rule="evenodd" d="M6.196 1.657a3.903 3.903 0 016.66 2.895l-.004.1a4 4 0 01-3.997 3.862H4.753a1 1 0 110-2h4.102a2 2 0 001.998-1.93l.004-.101A1.903 1.903 0 007.61 3.07l-.15.15a1 1 0 11-1.414-1.414l.15-.15zm9.735 2.174a3.448 3.448 0 011.444-.317c1.873 0 3.393 1.508 3.447 3.365.055 1.938-1.488 3.578-3.445 3.598l-3.614.037a1 1 0 11-.02-2l3.614-.037a1.496 1.496 0 001.465-1.54 1.462 1.462 0 00-1.447-1.423c-.21 0-.417.046-.607.133l-.596.275a1 1 0 01-.838-1.816l.597-.275zm-5.383 14.558a3.543 3.543 0 01-2.866-1.46l-.238-.327a1 1 0 011.618-1.176l.238.327a1.544 1.544 0 002.792-.908v-.393c0-1.07-.867-1.938-1.937-1.938H1.753a1 1 0 010-2h8.402a3.937 3.937 0 013.937 3.938v.393a3.544 3.544 0 01-3.544 3.544z" fill="#839393"/></svg>