<svg width="21" height="21" fill="none" xmlns="http://www.w3.org/2000/svg"><path fill-rule="evenodd" clip-rule="evenodd" d="M13.833 2.81c.001 0-.004.009-.019.026.01-.018.018-.027.019-.026zm-.482.336c-.576-.291-1.489-.527-2.598-.527-1.11 0-2.023.236-2.598.527.575.29 1.488.526 2.598.526 1.11 0 2.022-.235 2.598-.526zm-5.678-.337c.001 0 .009.009.019.027-.015-.017-.02-.026-.02-.026zm6.08 2.945V5.25c-.836.33-1.874.526-3 .526s-2.164-.195-3-.526v1.064a.878.878 0 00.028.019c.266.174 1.043.496 2.972.496s2.706-.322 2.972-.496c.01-.007.02-.013.028-.02v-.56zm1.878 1.392a1.73 1.73 0 01-.06.128c-.153.303-.408.597-.79.847-.734.481-1.957.814-4.028.814-2.071 0-3.294-.333-4.028-.814-.382-.25-.637-.544-.791-.847a1.707 1.707 0 01-.162-.484l-3.02 1.252v.135l8 2.806 8-2.807v-.063l-3.121-.967zm-9.337-.573h.459-.459zm-.513-3.148a1.113 1.113 0 00-.028.247v.862L1.386 6.346a1.053 1.053 0 00-.633.98v8.668c0 .442.262.837.656.989l9 3.467a.953.953 0 00.688 0l9-3.467c.394-.152.656-.547.656-.989V7.325c0-.467-.292-.878-.718-1.01L15.753 4.99V3.672c0-.085-.01-.168-.028-.247.018-.092.028-.185.028-.28 0-1.453-2.239-2.63-5-2.63-2.762 0-5 1.177-5 2.63 0 .095.01.188.028.28zM2.753 15.258v-4.862l7 2.456v5.103l-7-2.697zm9 2.697l7-2.697v-4.862l-7 2.456v5.103z" fill="#839393"/></svg>