<svg width="15" height="21" fill="none" xmlns="http://www.w3.org/2000/svg"><path fill-rule="evenodd" clip-rule="evenodd" d="M6.086 20.514a2 2 0 01-2-2v-6.266A5.302 5.302 0 01.753 7.325v-2.31a4.5 4.5 0 014.5-4.5 2 2 0 012 2v3.5a.5.5 0 001 0v-3.5a2 2 0 012-2 4.5 4.5 0 014.5 4.5v2.31a5.302 5.302 0 01-3.333 4.923v6.266a2 2 0 01-2 2H6.086zm3.334-2H6.086v-7.856a.033.033 0 00-.033-.033 3.3 3.3 0 01-3.3-3.3v-2.31a2.496 2.496 0 012.5-2.5v3.5a2.5 2.5 0 005 0v-3.5a2.496 2.496 0 012.5 2.5v2.31a3.3 3.3 0 01-3.3 3.3.033.033 0 00-.033.033v7.856z" fill="#839393"/></svg>