<svg width="21" height="21" fill="none" xmlns="http://www.w3.org/2000/svg"><path fill-rule="evenodd" clip-rule="evenodd" d="M3.753.514h12a3.001 3.001 0 012.959 2.5h1.04a1 1 0 011 1v6a1 1 0 01-1 1h-8.999v1.563a2 2 0 011.5 1.937v4a2 2 0 01-2 2h-1a2 2 0 01-2-2v-4a2 2 0 011.5-1.937v-2.563a1 1 0 011-1h9v-4h-.041a3.001 3.001 0 01-2.96 2.5h-12a3 3 0 01-3-3v-1a3 3 0 013-3zm13 3.469a1.084 1.084 0 000 .062v.47a1 1 0 01-1 1h-12a1 1 0 01-1-1v-1a1 1 0 011-1h12a1 1 0 011 1v.468zm-7 10.531h-.5v4h1v-4h-.5z" fill="#839393"/></svg>