<svg width="21" height="21" fill="none" xmlns="http://www.w3.org/2000/svg"><path fill-rule="evenodd" clip-rule="evenodd" d="M2.996 3.516c-3.905 3.906-3.905 10.237 0 14.143 3.906 3.905 10.237 3.905 14.143 0 3.905-3.906 3.905-10.237 0-14.143-3.906-3.905-10.237-3.905-14.143 0zm12.173.909a8.074 8.074 0 011.37 1.458L15.101 7.32a6.028 6.028 0 00-1.354-1.474l1.422-1.422zm-1.733-1.096a8.025 8.025 0 00-6.494-.108l1.57 1.57a6.028 6.028 0 013.382.08l1.542-1.542zm2.496 5.99l1.604-1.604a8.028 8.028 0 01-.102 5.997l-1.57-1.57a6.033 6.033 0 00.068-2.824zm-.974 4.746a6.04 6.04 0 01-1.414 1.414l1.43 1.429a8.077 8.077 0 001.413-1.414l-1.429-1.43zm-3.337 2.319l1.57 1.57a8.029 8.029 0 01-5.997.102l1.603-1.604a6.03 6.03 0 002.824-.068zM5.825 14.83a6 6 0 00.975.791L5.362 17.06a8.067 8.067 0 01-1.458-1.37l1.423-1.423c.152.196.318.384.498.564zM4.35 12.414a6.028 6.028 0 01-.08-3.38L2.7 7.465a8.025 8.025 0 00.108 6.492l1.542-1.542zm.81-8.146a8.076 8.076 0 00-1.414 1.414l1.429 1.43A6.041 6.041 0 016.59 5.696l-1.43-1.43zm2.078 3.491a4 4 0 115.657 5.657 4 4 0 01-5.657-5.657z" fill="#839393"/></svg>