<svg width="21" height="21" fill="none" xmlns="http://www.w3.org/2000/svg"><path fill-rule="evenodd" clip-rule="evenodd" d="M16.245.514a1.503 1.503 0 100 3.007 1.503 1.503 0 000-3.007zM1.84 14.224l9.463-9.457c.84-.84 2.202-.84 3.042 0l2.17 2.169c.84.84.84 2.2 0 3.04l-9.463 9.458a3.687 3.687 0 01-5.212 0 3.682 3.682 0 010-5.21zm10.877-8.043L9.754 9.143l2.383 2.381L15.1 8.563a.15.15 0 000-.213l-2.17-2.17a.15.15 0 00-.213 0zm-9.462 9.457l5.084-5.081 2.383 2.381-5.084 5.082a1.686 1.686 0 01-2.383-2.382zm14.495-4.605a1.503 1.503 0 113.007.001 1.503 1.503 0 01-3.007-.001zM10.23.514a1.503 1.503 0 100 3.007 1.503 1.503 0 000-3.007z" fill="#839393"/></svg>