<svg width="21" height="21" fill="none" xmlns="http://www.w3.org/2000/svg"><path fill-rule="evenodd" clip-rule="evenodd" d="M18.753 18.514h-3v-4h3v4zm-8 0h3v-4h-3v4zm-2 0h-4a2 2 0 010-4h4v4zm-6-6.393l2.52-2.52 1.48-1.48V2.514h-4v9.607zm6-6l3.355-3.355a2 2 0 012.828 0l2.829 2.829a2 2 0 010 2.828L14.7 11.487l-1.026 1.027h5.26c1.005 0 1.819.814 1.819 1.818v4.364a1.818 1.818 0 01-1.818 1.818H4.753a4 4 0 01-4-4v-14a2 2 0 012-2h4a2 2 0 012 2v3.607zm-2.066 4.895l-1.499 1.498h5.657l2.441-2.44 3.064-3.065-2.828-2.828-6.835 6.835z" fill="#839393"/></svg>