<svg xmlns="http://www.w3.org/2000/svg" width="22" height="16" viewBox="0 0 22 16"><g><g clip-path="url(#clip-0bf80b6a-979b-48bf-aa94-32a69389c88b)"><g><g><g><path d="M20.866 14.834a.348.348 0 0 1-.348.348H1.748a.348.348 0 0 1-.348-.348V.93c0-.191.156-.347.348-.347h18.77c.192 0 .348.155.348.347v13.904zM20.518-.112H1.748C1.172-.112.705.355.705.93v13.903c0 .576.467 1.043 1.043 1.043h18.77c.576 0 1.043-.467 1.043-1.043V.931c0-.576-.467-1.043-1.043-1.043z"/></g><g><path d="M19.853 1.28a.347.347 0 0 0-.253.08l-8.02 6.736a.695.695 0 0 1-.894 0l-8.02-6.737a.348.348 0 0 0-.446.533l8.019 6.736a1.389 1.389 0 0 0 1.788 0l8.02-6.736a.348.348 0 0 0-.194-.613z"/></g><g><path d="M7.39 8.58a.348.348 0 0 0-.335.108L2.19 13.902a.348.348 0 1 0 .508.474l4.867-5.214a.348.348 0 0 0-.173-.582z"/></g><g><path d="M15.21 8.688a.348.348 0 1 0-.507.474l4.866 5.214a.348.348 0 0 0 .508-.474z"/></g></g></g></g></g></svg>