<svg xmlns="http://www.w3.org/2000/svg" width="21" height="21" viewBox="0 0 21 21"><g><g clip-path="url(#clip-16ccb6a4-454f-4cbe-abfc-d18c35713926)"><g><path d="M1.7 3.25c0-.993.808-1.8 1.8-1.8h14.478c.992 0 1.8.807 1.8 1.8v14.477c0 .992-.808 1.8-1.8 1.8H3.5c-.992 0-1.8-.808-1.8-1.8zm1.8 17.477h14.478c1.654 0 3-1.346 3-3V3.25c0-1.653-1.346-2.999-3-2.999H3.5c-1.654 0-3 1.346-3 3v14.477c0 1.654 1.346 3 3 3z"/></g><g><path d="M10.74 6.289c2.315 0 4.198 1.884 4.198 4.2 0 2.315-1.883 4.199-4.199 4.199a4.204 4.204 0 0 1-4.2-4.2c0-2.315 1.885-4.199 4.2-4.199zm0 9.598c2.976 0 5.398-2.422 5.398-5.399S13.716 5.09 10.74 5.09a5.405 5.405 0 0 0-5.399 5.4c0 2.976 2.422 5.398 5.4 5.398z"/></g><g><path d="M16.738 3.89a.6.6 0 1 1-.001 1.2.6.6 0 0 1 .001-1.2zm0 2.399c.993 0 1.8-.807 1.8-1.8 0-.992-.807-1.8-1.8-1.8-.992 0-1.8.808-1.8 1.8 0 .993.808 1.8 1.8 1.8z"/></g></g></g></svg>