<svg xmlns="http://www.w3.org/2000/svg" width="25" height="25" viewBox="0 0 25 25"><g><g><g><path d="M6.192 22.082a.467.467 0 0 0-.385-.05l-4.202 1.293c.309-1.127.863-3.142 1.185-4.263a.469.469 0 0 0-.057-.384A11.162 11.162 0 0 1 .93 12.58c0-6.178 5.028-11.206 11.207-11.206 6.18 0 11.208 5.028 11.208 11.206 0 6.179-5.028 11.206-11.208 11.206-2.11 0-4.165-.59-5.945-1.704zM12.137.44C5.442.44-.003 5.886-.003 12.58c0 2.284.634 4.5 1.838 6.426-.48 1.68-1.346 4.858-1.355 4.89a.465.465 0 0 0 .587.57l4.813-1.48a12.112 12.112 0 0 0 6.257 1.734c6.695 0 12.142-5.446 12.142-12.14 0-6.694-5.447-12.14-12.142-12.14z"/></g><g><path d="M14.308 18.889c-4.793-.719-7.812-5.467-8.74-7.877-.92-2.39.777-4.522 1.203-5.004.346-.059.711-.084.863-.06.318.442 1.42 2.522 1.468 2.897 0 .245-.08.586-1.03 1.538a.465.465 0 0 0-.137.33c0 2.444 5.157 5.836 6.07 5.836.795 0 1.83-1.335 2.42-2.205a.443.443 0 0 1 .173.054c.168.085.46.275.828.516.487.318 1.133.74 1.896 1.177-.346 1.667-1.315 3.353-5.014 2.798zm5.76-3.448c-.861-.479-1.595-.959-2.13-1.31-.41-.266-.706-.46-.922-.568-.606-.302-1.065-.089-1.24.088a.467.467 0 0 0-.058.07c-.629.945-1.45 1.847-1.69 1.896-.279-.044-1.58-.783-2.872-1.86-1.32-1.099-2.15-2.152-2.272-2.869.847-.871 1.152-1.42 1.152-2.043 0-.643-1.5-3.327-1.771-3.599-.272-.271-.886-.314-1.823-.127a.472.472 0 0 0-.238.127c-.114.114-2.769 2.82-1.507 6.101 1.385 3.6 4.94 7.786 9.472 8.465.515.077.998.116 1.45.116 2.666 0 4.24-1.342 4.683-4.003a.465.465 0 0 0-.233-.484z"/></g></g></g></svg>