<svg version="1.1" xmlns="http://www.w3.org/2000/svg" xmlns:xlink="http://www.w3.org/1999/xlink" width="60" height="66"><defs/><g><path fill="rgb(255,255,255)" stroke="none" paint-order="stroke fill markers" fill-rule="evenodd" d=" M 44.296807289123535 43.73653531074524 C 52.96413207054138 45.020209074020386 54.74411928653717 47.84085154533386 56.378034591674805 49.411436557769775 C 58.012184739112854 50.98045802116394 57.96509885787964 58.14620327949524 57.96509885787964 58.14620327949524 C 57.96509885787964 58.14620327949524 33.38896954059601 58.18138313293457 33.38896954059601 58.18138313293457 C 33.38896954059601 58.18138313293457 35.7577064037323 52.37592554092407 35.7577064037323 52.37592554092407 C 35.7577064037323 52.37592554092407 32.45875918865204 38.63780188560486 32.45875918865204 38.63780188560486 C 32.45875918865204 41.14260745048523 31.171353697776794 40.73999357223511 31.171353697776794 40.73999357223511 C 31.171353697776794 40.73999357223511 29.07961332798004 40.73999357223511 29.07961332798004 40.73999357223511 C 27.44370186328888 40.73999357223511 27.54022204875946 39.472737073898315 27.6079740524292 39.08263158798218 C 27.6079740524292 39.08263158798218 27.631223440170288 38.961456537246704 27.631223440170288 38.961456537246704 C 27.631223440170288 38.961456537246704 27.62018585205078 39.01149010658264 27.6079740524292 39.08263158798218 C 27.6079740524292 39.08263158798218 25.056529879570007 52.37592554092407 25.056529879570007 52.37592554092407 C 25.056529879570007 52.37592554092407 27.308197855949402 58.189982652664185 27.308197855949402 58.189982652664185 C 27.308197855949402 58.189982652664185 1.9884403944015503 58.22750782966614 1.9884403944015503 58.22750782966614 C 1.9884403944015503 58.22750782966614 2.427712917327881 50.98045802116394 4.061628222465515 49.411436557769775 C 5.695543527603149 47.84085154533386 7.355056643486023 45.020209074020386 16.022498846054077 43.73653531074524 C 24.689823627471924 42.45286154747009 24.059741735458374 37.871662855148315 24.34401834011078 38.01394581794739 C 24.291296243667603 36.276061058044434 24.123266577720642 33.8392698764801 24.123266577720642 33.8392698764801 C 24.123266577720642 33.8392698764801 20.58055305480957 31.920013427734375 19.251697897911072 28.117462158203125 C 16.461536526679993 26.99170684814453 16.829769253730774 26.267783641815186 16.55876123905182 24.813683032989502 C 16.55876123905182 24.813683032989502 15.71180248260498 18.91597604751587 17.59594225883484 19.03871464729309 C 17.59594225883484 19.03871464729309 18.885578751564026 19.03871464729309 18.58615481853485 17.684681177139282 C 18.486229419708252 15.429261684417725 18.282386302947998 11.525079727172852 18.432215690612793 10.019381999969482 C 18.581692814826965 8.51681137084961 19.290329456329346 4.455492734909058 22.435102701187134 3.8543081283569336 C 25.579875946044922 3.2531235218048096 24.3193598985672 3.5533249378204346 25.36746108531952 3.403224229812622 C 26.415679693222046 3.2531235218048096 26.11637318134308 2.6503753662109375 28.062981009483337 2.6503753662109375 C 28.062981009483337 2.6503753662109375 32.10649573802948 1.999157190322876 32.10649573802948 1.999157190322876 C 34.05298614501953 1.999157190322876 35.301055550575256 4.888595819473267 36.34927415847778 5.038696527481079 C 37.39749276638031 5.188015460968018 37.405829668045044 4.579013109207153 39.55217087268829 4.980845212936401 C 42.69694411754608 5.582811594009399 42.260254859924316 9.719962358474731 42.41008424758911 11.224096536636353 C 42.5597962141037 12.7274489402771 42.65960419178009 16.632412672042847 42.36006283760071 17.986446142196655 C 42.060521483421326 19.33969783782959 42.996485471725464 19.188815355300903 42.996485471725464 19.188815355300903 C 45.24275207519531 19.188815355300903 44.13464868068695 24.963783740997314 44.13464868068695 24.963783740997314 C 43.788843393325806 26.49371647834778 43.63584363460541 26.677433490753174 41.54469037055969 28.004886627197266 C 40.215717792510986 31.807437896728516 36.61957764625549 34.1402530670166 36.61957764625549 34.1402530670166 C 36.61957764625549 34.1402530670166 36.63871729373932 37.04220008850098 36.623335123062134 37.72625279426575 C 36.682867646217346 37.995965003967285 36.19263434410095 42.53416609764099 44.296807289123535 43.73653531074524 Z M 31.0106041431427 64.01185750961304 C 31.0106041431427 64.01185750961304 29.562331676483154 64.01185750961304 29.562331676483154 64.01185750961304 C 29.562331676483154 64.01185750961304 27.308197855949402 58.189982652664185 27.308197855949402 58.189982652664185 C 27.308197855949402 58.189982652664185 33.38896954059601 58.18138313293457 33.38896954059601 58.18138313293457 C 33.38896954059601 58.18138313293457 31.0106041431427 64.01185750961304 31.0106041431427 64.01185750961304 Z"/></g></svg>