<svg version="1.1" xmlns="http://www.w3.org/2000/svg" xmlns:xlink="http://www.w3.org/1999/xlink" width="36" height="36"><defs/><g><path fill="rgb(13,13,13)" stroke="none" paint-order="stroke fill markers" fill-rule="evenodd" d=" M 33.41451108455658 12.58533763885498 C 33.41451108455658 12.58533763885498 23.414573669433594 2.5848779678344727 23.414573669433594 2.5848779678344727 C 22.918469309806824 2.089232921600342 22.19961702823639 1.8898804187774658 21.519044041633606 2.057180166244507 C 21.15961790084839 2.1463024616241455 20.839410424232483 2.330801248550415 20.585428476333618 2.5848779678344727 C 20.358805656433105 2.8115925788879395 20.187018513679504 3.093031406402588 20.089324116706848 3.4080865383148193 C 19.63525652885437 4.876259088516235 18.852057456970215 6.15367865562439 17.693815231323242 7.312268495559692 C 16.14596962928772 8.85861849784851 14.13031816482544 10.030498504638672 11.996541023254395 11.268829345703125 C 9.732896089553833 12.58142876625061 7.394101619720459 13.940934658050537 5.477083921432495 15.857064008712769 C 3.848217725753784 17.48784565925598 2.738705277442932 19.301562547683716 2.089366316795349 21.407663106918335 C 1.8706107139587402 22.118296146392822 2.0609503984451294 22.888344049453735 2.585470676422119 23.41369652748108 C 2.585470676422119 23.41369652748108 12.585408091545105 33.41337442398071 12.585408091545105 33.41337442398071 C 13.081512451171875 33.909019470214844 13.800247311592102 34.109153747558594 14.480937719345093 33.94107222557068 C 14.840246438980103 33.851168155670166 15.160688757896423 33.66745114326477 15.41455328464508 33.41337442398071 C 15.641058683395386 33.186659812927246 15.812963247299194 32.9052209854126 15.91065764427185 32.58938407897949 C 16.36472523212433 31.120429754257202 17.147924304008484 29.843010187149048 18.307105898857117 28.68520212173462 C 19.85401213169098 27.138070344924927 21.86954617500305 25.967753887176514 24.004380106925964 24.72942304611206 C 26.267085671424866 23.415260076522827 28.605997562408447 22.0557541847229 30.522897839546204 20.140406608581543 C 32.15188145637512 18.511188507080078 33.26115906238556 16.694344520568848 33.91061544418335 14.589025735855103 C 34.12937104701996 13.879956245422363 33.93891394138336 13.109126567840576 33.41451108455658 12.58533763885498 Z M 14.000450372695923 31.999144315719604 C 10.687999725341797 28.686765670776367 7.311906814575195 25.31028151512146 3.9994561672210693 21.99946641921997 C 6.841282844543457 12.797980308532715 19.15864408016205 13.200594186782837 21.99941396713257 3.999108076095581 C 25.311982035636902 7.30992317199707 28.687957525253296 10.687189102172852 32.00040817260742 13.998785972595215 C 29.15869891643524 23.19792675971985 16.841220259666443 22.798439979553223 14.000450372695923 31.999144315719604 Z M 21.56096339225769 16.899169445037842 C 21.23488485813141 16.626330137252808 20.90669274330139 16.44026780128479 20.576621890068054 16.34880018234253 C 20.248429775238037 16.25733256340027 19.920355081558228 16.219807386398315 19.58840548992157 16.243260622024536 C 19.260213375091553 16.268277406692505 18.92427146434784 16.34332776069641 18.588329553604126 16.472320556640625 C 18.25250506401062 16.602876901626587 17.91456699371338 16.745941638946533 17.57463276386261 16.909332513809204 C 17.037548422813416 16.291730642318726 16.50046408176422 15.682728290557861 15.963379740715027 15.116723537445068 C 16.205502152442932 14.897044897079468 16.43999218940735 14.786032915115356 16.666497588157654 14.778215169906616 C 16.893120408058167 14.768833875656128 17.111758589744568 14.792287111282349 17.318889498710632 14.845447778701782 C 17.529777884483337 14.897044897079468 17.723170518875122 14.942387819290161 17.9008287191391 14.978349447250366 C 18.08060050010681 15.012747526168823 18.236770629882812 14.974440574645996 18.373448848724365 14.85873794555664 C 18.517994284629822 14.733654022216797 18.598192930221558 14.571826696395874 18.609817624092102 14.375601291656494 C 18.619563579559326 14.17859411239624 18.545353412628174 13.987841129302979 18.38131606578827 13.800215244293213 C 18.170310258865356 13.557865142822266 17.9164457321167 13.41089153289795 17.611737847328186 13.356949090957642 C 17.31090486049652 13.303788423538208 17.002439498901367 13.307697296142578 16.681997179985046 13.37805700302124 C 16.36566460132599 13.450762033462524 16.06494903564453 13.569591760635376 15.779733061790466 13.737673282623291 C 15.494517087936401 13.904973030090332 15.266015529632568 14.077745199203491 15.096107125282288 14.245826721191406 C 15.030820965766907 14.18250298500061 14.966239333152771 14.121524572372437 14.900835752487183 14.06210970878601 C 14.82850432395935 13.994877099990845 14.738794565200806 13.960479021072388 14.631354212760925 13.962042570114136 C 14.521917700767517 13.962042570114136 14.432090520858765 14.008949041366577 14.357880353927612 14.09494423866272 C 14.285666346549988 14.17859411239624 14.25243616104126 14.276315927505493 14.266057014465332 14.379510164260864 C 14.275802969932556 14.488176822662354 14.318779110908508 14.569481372833252 14.39298927783966 14.632023334503174 C 14.458392858505249 14.686747550964355 14.522974491119385 14.741471767425537 14.588378071784973 14.797759532928467 C 14.33239996433258 15.106560468673706 14.121511578559875 15.448195934295654 13.95559549331665 15.807812213897705 C 13.78756582736969 16.168992042541504 13.687992691993713 16.526262998580933 13.650887608528137 16.874152660369873 C 13.611786365509033 17.22360587120056 13.64889144897461 17.54413342475891 13.75633180141449 17.84120774269104 C 13.86377215385437 18.139845609664917 14.060922265052795 18.393922328948975 14.350013136863708 18.634708881378174 C 14.820754528045654 19.02481436729431 15.375452041625977 19.190550565719604 16.01809799671173 19.15302538871765 C 16.65863037109375 19.114718437194824 17.350006103515625 18.922401905059814 18.092225193977356 18.524478673934937 C 18.683088421821594 19.206186056137085 19.274891018867493 19.883984565734863 19.865636825561523 20.513313055038452 C 19.615647196769714 20.723610401153564 19.397009015083313 20.844785451889038 19.20349895954132 20.88387417793274 C 19.010223746299744 20.92452645301819 18.838319182395935 20.92061758041382 18.682031631469727 20.87449288368225 C 18.525861501693726 20.825241088867188 18.38131606578827 20.7556631565094 18.248395323753357 20.664977312088013 C 18.11570942401886 20.573509693145752 17.984902262687683 20.49533224105835 17.8539776802063 20.430444955825806 C 17.725049257278442 20.366339445114136 17.592245936393738 20.331159591674805 17.455567717552185 20.329596042633057 C 17.318889498710632 20.327250719070435 17.17422664165497 20.393701553344727 17.01418161392212 20.531293869018555 C 16.850026845932007 20.672795057296753 16.768066883087158 20.83931303024292 16.768066883087158 21.026938915252686 C 16.768066883087158 21.21221947669983 16.854019165039062 21.402190685272217 17.021931409835815 21.59294366836548 C 17.191839814186096 21.784478425979614 17.412591576576233 21.943960428237915 17.68019437789917 22.07138967514038 C 17.947797179222107 22.198037147521973 18.248395323753357 22.278559923171997 18.58057975769043 22.299667835235596 C 18.912529349327087 22.323121070861816 19.26220953464508 22.27308750152588 19.631381630897522 22.136276960372925 C 20.002432465553284 22.00102996826172 20.369608402252197 21.757116317749023 20.730913281440735 21.394372940063477 C 20.90575337409973 21.563236236572266 21.081532835960388 21.725845336914062 21.256372928619385 21.882200241088867 C 21.330583095550537 21.946305751800537 21.42041027545929 21.977576732635498 21.52972936630249 21.969758987426758 C 21.63529098033905 21.965850114822388 21.72711431980133 21.9173800945282 21.799210906028748 21.829039573669434 C 21.8734210729599 21.73913550376892 21.904772520065308 21.63985013961792 21.893030405044556 21.53665590286255 C 21.88328444957733 21.43033456802368 21.84030830860138 21.35059356689453 21.768094301223755 21.29196047782898 C 21.59219741821289 21.15202283859253 21.416417956352234 21.003485679626465 21.240638494491577 20.84713077545166 C 21.539592742919922 20.47969675064087 21.7797189950943 20.092718362808228 21.957494616508484 19.71043062210083 C 22.13527023792267 19.325015783309937 22.240597009658813 18.95445466041565 22.27582335472107 18.61047387123108 C 22.310932278633118 18.26492953300476 22.269952297210693 17.95221972465515 22.156758308410645 17.669217348098755 C 22.04532563686371 17.38230609893799 21.846179366111755 17.13604712486267 21.56096339225769 16.899169445037842 Z M 15.971129536628723 17.57696795463562 C 15.687909722328186 17.58869457244873 15.440855622291565 17.49566340446472 15.225035548210144 17.286147832870483 C 15.133212208747864 17.198589086532593 15.068865418434143 17.09148597717285 15.029764175415039 16.964056730270386 C 14.988784193992615 16.837409257888794 14.975045919418335 16.698253393173218 14.990662932395935 16.545807361602783 C 15.004401206970215 16.39570665359497 15.049256086349487 16.239351749420166 15.127458572387695 16.081433296203613 C 15.201668739318848 15.922733068466187 15.310987830162048 15.764814615249634 15.451658368110657 15.613150358200073 C 15.958448052406311 16.116613149642944 16.464415788650513 16.66932773590088 16.971205472946167 17.241586685180664 C 16.588412523269653 17.45266580581665 16.25434935092926 17.56524133682251 15.971129536628723 17.57696795463562 Z M 20.687937140464783 19.579092502593994 C 20.59810996055603 19.74561047554016 20.494544506072998 19.894147634506226 20.373483300209045 20.02314043045044 C 19.813971519470215 19.456353902816772 19.253402948379517 18.834843158721924 18.693891167640686 18.196133375167847 C 18.836323022842407 18.132027864456177 18.98673951625824 18.065577030181885 19.148898124694824 17.997562646865845 C 19.3109393119812 17.92876648902893 19.473097920417786 17.88420534133911 19.63525652885437 17.85684323310852 C 19.801290035247803 17.831044673919678 19.9652099609375 17.838862419128418 20.129364728927612 17.878732919692993 C 20.29140591621399 17.91860342025757 20.44569730758667 18.007725715637207 20.588364005088806 18.14609980583191 C 20.728917121887207 18.28603744506836 20.818861722946167 18.433011054992676 20.853970646858215 18.59092950820923 C 20.89307188987732 18.751193284988403 20.89495062828064 18.913020610809326 20.867708921432495 19.079538583755493 C 20.838353633880615 19.245274782180786 20.779760479927063 19.41101098060608 20.687937140464783 19.579092502593994 Z M 16.717223525047302 24.179053783416748 C 16.717223525047302 24.179053783416748 16.715227365493774 24.179053783416748 16.715227365493774 24.179053783416748 C 16.090312004089355 24.659845113754272 15.479956865310669 25.165653228759766 14.915513396263123 25.73165798187256 C 14.372557997703552 26.274991273880005 13.881385326385498 26.846468448638916 13.454559445381165 27.431235790252686 C 13.454559445381165 27.431235790252686 12.770933508872986 28.363892793655396 12.770933508872986 28.363892793655396 C 12.770933508872986 28.363892793655396 12.772929668426514 28.366238117218018 12.772929668426514 28.366238117218018 C 12.647993564605713 28.561681747436523 12.669364213943481 28.82357621192932 12.83939003944397 28.993221282958984 C 13.034661412239075 29.18866491317749 13.35299015045166 29.18866491317749 13.549200892448425 28.993221282958984 C 13.579612970352173 28.962732076644897 13.60297977924347 28.929115772247314 13.623411059379578 28.893935918807983 C 13.623411059379578 28.893935918807983 14.262182116508484 28.018348455429077 14.262182116508484 28.018348455429077 C 14.65859591960907 27.477360486984253 15.116655826568604 26.944972038269043 15.623445510864258 26.43916392326355 C 16.184014081954956 25.877849817276 16.70454204082489 25.443964958190918 17.337324619293213 24.963955402374268 C 17.337324619293213 24.963955402374268 17.335445880889893 24.961610078811646 17.335445880889893 24.961610078811646 C 17.352941632270813 24.948319911956787 17.37055480480194 24.93737506866455 17.38617181777954 24.92173957824707 C 17.582499980926514 24.72551417350769 17.582499980926514 24.407331943511963 17.38617181777954 24.211888313293457 C 17.203581929206848 24.028953075408936 16.913551688194275 24.021135330200195 16.717223525047302 24.179053783416748 Z M 20.3774756193161 9.714661598205566 C 19.85495150089264 10.236886978149414 19.287572503089905 10.70829701423645 18.700701594352722 11.15703558921814 C 18.65866482257843 11.181270599365234 18.617684841156006 11.206287384033203 18.58245849609375 11.243030786514282 C 18.385308384895325 11.44081974029541 18.385308384895325 11.760565519332886 18.58245849609375 11.958354473114014 C 18.774794340133667 12.151452779769897 19.083494544029236 12.155361652374268 19.28264081478119 11.972426414489746 C 19.28264081478119 11.972426414489746 19.285693764686584 11.973989963531494 19.285693764686584 11.973989963531494 C 19.911548495292664 11.49319863319397 20.519907474517822 10.985045194625854 21.084468364715576 10.421385765075684 C 21.627423763275146 9.878052473068237 22.1185964345932 9.308138847351074 22.545304894447327 8.723371505737305 C 22.545304894447327 8.723371505737305 23.228930830955505 7.786805629730225 23.228930830955505 7.786805629730225 C 23.228930830955505 7.786805629730225 23.227052092552185 7.7844603061676025 23.227052092552185 7.7844603061676025 C 23.396960496902466 7.585107803344727 23.390032649040222 7.288815259933472 23.20168912410736 7.100407600402832 C 23.005360960960388 6.903400421142578 22.685975432395935 6.903400421142578 22.488707900047302 7.100407600402832 C 22.452542185783386 7.137932777404785 22.42530047893524 7.1809303760528564 22.401816248893738 7.223927974700928 C 22.401816248893738 7.223927974700928 21.736742854118347 8.133913516998291 21.736742854118347 8.133913516998291 C 21.34126842021942 8.677246809005737 20.883208513259888 9.208853483200073 20.3774756193161 9.714661598205566 Z"/></g></svg>