<svg version="1.1" xmlns="http://www.w3.org/2000/svg" xmlns:xlink="http://www.w3.org/1999/xlink" width="30" height="43"><defs/><g><path fill="rgb(13,13,13)" stroke="none" paint-order="stroke fill markers" fill-rule="evenodd" d=" M 14.999932169914246 1.998399019241333 C 7.405954122543335 1.998399019241333 1.2499154806137085 8.154873371124268 1.2499154806137085 15.748249292373657 C 1.2499154806137085 20.787567853927612 5.86057436466217 26.127869606018066 7.539109706878662 30.81695318222046 C 10.042646050453186 37.813053369522095 9.76553213596344 41.998674154281616 14.999932169914246 41.998674154281616 C 20.31241726875305 41.998674154281616 19.955926656723022 37.83181595802307 22.460989475250244 30.846660614013672 C 24.14551329612732 26.14585041999817 28.749948859214783 20.749260902404785 28.749948859214783 15.748249292373657 C 28.749948859214783 8.154873371124268 22.593910217285156 1.998399019241333 14.999932169914246 1.998399019241333 Z M 18.2409907579422 35.9680655002594 C 18.2409907579422 35.9680655002594 12.042210817337036 36.74358582496643 12.042210817337036 36.74358582496643 C 11.821224212646484 36.10253071784973 11.583211541175842 35.35280895233154 11.29506003856659 34.37637257575989 C 11.291419982910156 34.36464595794678 11.286605715751648 34.34979224205017 11.28413987159729 34.33728384971619 C 11.28413987159729 34.33728384971619 19.01972782611847 33.371010541915894 19.01972782611847 33.371010541915894 C 18.90982162952423 33.74078989028931 18.79146111011505 34.129331827163696 18.690126657485962 34.47565793991089 C 18.526558995246887 35.03775382041931 18.378843188285828 35.5255811214447 18.2409907579422 35.9680655002594 Z M 10.920369148254395 33.134132862091064 C 10.693276643753052 32.382065773010254 10.436946272850037 31.58856463432312 10.15137803554535 30.74893879890442 C 10.15137803554535 30.74893879890442 19.858349680900574 30.74893879890442 19.858349680900574 30.74893879890442 C 19.7057021856308 31.19767737388611 19.551997900009155 31.647979497909546 19.418959736824036 32.07170128822327 C 19.418959736824036 32.07170128822327 10.920369148254395 33.134132862091064 10.920369148254395 33.134132862091064 Z M 14.999932169914246 39.49855923652649 C 13.734132170677185 39.49855923652649 13.150549054145813 39.35314917564392 12.50355851650238 37.93657374382019 C 12.50355851650238 37.93657374382019 17.801483392715454 37.27362895011902 17.801483392715454 37.27362895011902 C 17.03484070301056 39.34064078330994 16.47579860687256 39.49855923652649 14.999932169914246 39.49855923652649 Z M 20.83987307548523 28.248823881149292 C 20.83987307548523 28.248823881149292 9.173612117767334 28.248823881149292 9.173612117767334 28.248823881149292 C 8.550927758216858 26.899481058120728 7.804011821746826 25.548574686050415 7.0666069984436035 24.22815752029419 C 5.435744643211365 21.309011459350586 3.749929189682007 18.289798259735107 3.749929189682007 15.748249292373657 C 3.749929189682007 9.544868469238281 8.796337962150574 4.49851393699646 14.999932169914246 4.49851393699646 C 21.203526377677917 4.49851393699646 26.249935150146484 9.544868469238281 26.249935150146484 15.748249292373657 C 26.249935150146484 18.27103567123413 24.56294548511505 21.306666135787964 22.93079149723053 24.243011236190796 C 22.199727416038513 25.55951952934265 21.458682537078857 26.90573525428772 20.83987307548523 28.248823881149292 Z M 14.999932169914246 8.249468088150024 C 10.8642418384552 8.249468088150024 7.499891042709351 11.613443851470947 7.499891042709351 15.748249292373657 C 7.499891042709351 16.09457540512085 7.779470801353455 16.373668909072876 8.124923825263977 16.373668909072876 C 8.4703768491745 16.373668909072876 8.749956607818604 16.09457540512085 8.749956607818604 15.748249292373657 C 8.749956607818604 12.302968978881836 11.55397367477417 9.498743772506714 14.999932169914246 9.498743772506714 C 15.345385193824768 9.498743772506714 15.624964952468872 9.219650268554688 15.624964952468872 8.87410593032837 C 15.624964952468872 8.527779817581177 15.345385193824768 8.249468088150024 14.999932169914246 8.249468088150024 Z"/></g></svg>