<svg version="1.1" xmlns="http://www.w3.org/2000/svg" xmlns:xlink="http://www.w3.org/1999/xlink" width="31" height="35"><defs/><g><path fill="rgb(255,255,255)" stroke="none" paint-order="stroke fill markers" fill-rule="evenodd" d=" M 28.112302780151367 7.021556615829468 C 28.112302780151367 7.021556615829468 26.89746356010437 3.36519718170166 26.89746356010437 3.36519718170166 C 26.624929070472717 2.5498063564300537 25.86122190952301 1.9986553192138672 24.999937772750854 1.9986553192138672 C 24.999937772750854 1.9986553192138672 6.9999799728393555 1.9986553192138672 6.9999799728393555 1.9986553192138672 C 6.1386958360672 1.9986553192138672 5.374988675117493 2.5498063564300537 5.10245418548584 3.36519718170166 C 5.10245418548584 3.36519718170166 3.8778690099716187 7.023120164871216 3.8778690099716187 7.023120164871216 C 2.83399498462677 7.091134548187256 1.9999525547027588 7.937796354293823 1.9999525547027588 8.998664379119873 C 1.9999525547027588 8.998664379119873 1.9999525547027588 11.999114990234375 1.9999525547027588 11.999114990234375 C 1.9999525547027588 13.102980613708496 2.8954062461853027 13.998894214630127 3.999987006187439 13.998894214630127 C 3.999987006187439 13.998894214630127 5.0341150760650635 13.998894214630127 5.0341150760650635 13.998894214630127 C 5.0341150760650635 14.073944568634033 5.003820419311523 14.144304275512695 5.012627005577087 14.219354629516602 C 5.012627005577087 14.219354629516602 7.012661457061768 32.21971297264099 7.012661457061768 32.21971297264099 C 7.124916076660156 33.23211097717285 7.9804465770721436 33.99903178215027 8.999897003173828 33.99903178215027 C 8.999897003173828 33.99903178215027 22.999903321266174 33.99903178215027 22.999903321266174 33.99903178215027 C 24.019471168518066 33.99903178215027 24.875001668930054 33.23211097717285 24.987256288528442 32.21971297264099 C 24.987256288528442 32.21971297264099 26.987290740013123 14.219354629516602 26.987290740013123 14.219354629516602 C 26.996097326278687 14.144304275512695 26.965802669525146 14.073944568634033 26.965802669525146 13.998894214630127 C 26.965802669525146 13.998894214630127 27.99993073940277 13.998894214630127 27.99993073940277 13.998894214630127 C 29.104511499404907 13.998894214630127 29.99996519088745 13.102980613708496 29.99996519088745 11.999114990234375 C 29.99996519088745 11.999114990234375 29.99996519088745 8.998664379119873 29.99996519088745 8.998664379119873 C 29.99996519088745 7.933887481689453 29.16110849380493 7.083316802978516 28.112302780151367 7.021556615829468 Z M 6.9999799728393555 3.998434543609619 C 6.9999799728393555 3.998434543609619 24.999937772750854 3.998434543609619 24.999937772750854 3.998434543609619 C 24.999937772750854 3.998434543609619 25.99989628791809 6.998885154724121 25.99989628791809 6.998885154724121 C 25.99989628791809 6.998885154724121 5.999904036521912 6.998885154724121 5.999904036521912 6.998885154724121 C 5.999904036521912 6.998885154724121 6.9999799728393555 3.998434543609619 6.9999799728393555 3.998434543609619 Z M 8.999897003173828 31.999252557754517 C 8.999897003173828 31.999252557754517 8.666890621185303 28.99958372116089 8.666890621185303 28.99958372116089 C 8.666890621185303 28.99958372116089 23.3329097032547 28.99958372116089 23.3329097032547 28.99958372116089 C 23.3329097032547 28.99958372116089 22.999903321266174 31.999252557754517 22.999903321266174 31.999252557754517 C 22.999903321266174 31.999252557754517 8.999897003173828 31.999252557754517 8.999897003173828 31.999252557754517 Z M 23.444224953651428 27.99891233444214 C 23.444224953651428 27.99891233444214 8.555692791938782 27.99891233444214 8.555692791938782 27.99891233444214 C 8.555692791938782 27.99891233444214 7.444301605224609 17.999234437942505 7.444301605224609 17.999234437942505 C 7.444301605224609 17.999234437942505 24.5556161403656 17.999234437942505 24.5556161403656 17.999234437942505 C 24.5556161403656 17.999234437942505 23.444224953651428 27.99891233444214 23.444224953651428 27.99891233444214 Z M 24.66693139076233 16.998563051223755 C 24.66693139076233 16.998563051223755 7.332986354827881 16.998563051223755 7.332986354827881 16.998563051223755 C 7.332986354827881 16.998563051223755 6.9999799728393555 13.998894214630127 6.9999799728393555 13.998894214630127 C 6.9999799728393555 13.998894214630127 24.999937772750854 13.998894214630127 24.999937772750854 13.998894214630127 C 24.999937772750854 13.998894214630127 24.66693139076233 16.998563051223755 24.66693139076233 16.998563051223755 Z M 27.99993073940277 11.999114990234375 C 27.99993073940277 11.999114990234375 3.999987006187439 11.999114990234375 3.999987006187439 11.999114990234375 C 3.999987006187439 11.999114990234375 3.999987006187439 8.998664379119873 3.999987006187439 8.998664379119873 C 3.999987006187439 8.998664379119873 27.99993073940277 8.998664379119873 27.99993073940277 8.998664379119873 C 27.99993073940277 8.998664379119873 27.99993073940277 11.999114990234375 27.99993073940277 11.999114990234375 Z"/></g></svg>