<svg version="1.1" xmlns="http://www.w3.org/2000/svg" xmlns:xlink="http://www.w3.org/1999/xlink" width="35" height="35"><defs/><g><path fill="rgb(255,255,255)" stroke="none" paint-order="stroke fill markers" fill-rule="evenodd" d=" M 22.681498289108276 5.731953859329224 C 22.209465265274048 5.2589802742004395 21.581496953964233 4.999431133270264 20.914075136184692 4.999431133270264 C 20.246066212654114 4.999431133270264 19.618685007095337 5.2589802742004395 19.145477771759033 5.732735633850098 C 19.145477771759033 5.732735633850098 17.734310388565063 7.144620418548584 17.734310388565063 7.144620418548584 C 17.26110315322876 7.61603045463562 17.000428199768066 8.244577169418335 16.999958515167236 8.913776159286499 C 16.999958515167236 9.384404420852661 17.128886938095093 9.834706544876099 17.371009349822998 10.226375579833984 C 17.371009349822998 10.226375579833984 3.7943062782287598 15.665180921554565 3.7943062782287598 15.665180921554565 C 2.886640787124634 16.06466770172119 2.235305666923523 16.88240385055542 2.0521286725997925 17.854931354522705 C 1.8676600456237793 18.83136773109436 2.177182197570801 19.83360266685486 2.886640787124634 20.54110860824585 C 2.886640787124634 20.54110860824585 15.606873989105225 33.121424198150635 15.606873989105225 33.121424198150635 C 16.15476107597351 33.669448137283325 16.882772207260132 33.98137617111206 17.651880741119385 33.997793436050415 C 17.668906807899475 33.99857521057129 17.711413264274597 33.99857521057129 17.728439331054688 33.99857521057129 C 17.930638551712036 33.99857521057129 18.134716510772705 33.97903084754944 18.338794469833374 33.93681502342224 C 19.331942558288574 33.7304265499115 20.146962761878967 33.044028520584106 20.51554775238037 32.1082444190979 C 20.51554775238037 32.1082444190979 25.857388138771057 18.732864141464233 25.857388138771057 18.732864141464233 C 26.26061236858368 18.997885704040527 26.731823444366455 19.139386892318726 27.225579380989075 19.139386892318726 C 27.893940567970276 19.139386892318726 28.522495985031128 18.87983775138855 28.993119955062866 18.40608239173889 C 28.993119955062866 18.40608239173889 30.401351809501648 16.99888825416565 30.401351809501648 16.99888825416565 C 30.877377152442932 16.52513289451599 31.139578580856323 15.896586179733276 31.139578580856323 15.225823640823364 C 31.139578580856323 14.555061101913452 30.877377152442932 13.925732612609863 30.406635761260986 13.458231449127197 C 30.406635761260986 13.458231449127197 22.681498289108276 5.731953859329224 22.681498289108276 5.731953859329224 Z M 18.658179998397827 31.366340398788452 C 18.534652948379517 31.679831981658936 18.261179089546204 31.910455465316772 17.932047605514526 31.978469848632812 C 17.855958700180054 31.994105339050293 17.779282689094543 32.00114130973816 17.703076362609863 31.998795986175537 C 17.449094414711 31.99332356452942 17.204506158828735 31.890911102294922 17.020976901054382 31.707194089889526 C 17.020976901054382 31.707194089889526 4.292993903160095 19.119842529296875 4.292993903160095 19.119842529296875 C 4.059090971946716 18.885310173034668 3.955995202064514 18.55149245262146 4.017523884773254 18.22705602645874 C 4.0785828828811646 17.90261960029602 4.296868801116943 17.628998517990112 4.598993420600891 17.496878623962402 C 4.598993420600891 17.496878623962402 10.816325902938843 15.00536322593689 10.816325902938843 15.00536322593689 C 15.005795121192932 16.3984854221344 19.19573402404785 15.056960344314575 23.3861426115036 19.527928829193115 C 23.3861426115036 19.527928829193115 18.658179998397827 31.366340398788452 18.658179998397827 31.366340398788452 Z M 28.992180585861206 15.579185724258423 C 28.992180585861206 15.579185724258423 27.57901704311371 16.992634057998657 27.57901704311371 16.992634057998657 C 27.383275985717773 17.188859462738037 27.06729567050934 17.188859462738037 26.872024297714233 16.992634057998657 C 26.872024297714233 16.992634057998657 25.104483723640442 15.225823640823364 25.104483723640442 15.225823640823364 C 25.104483723640442 15.225823640823364 23.671358585357666 18.814950466156006 23.671358585357666 18.814950466156006 C 23.671358585357666 18.814950466156006 23.79195010662079 18.511621952056885 23.79195010662079 18.511621952056885 C 20.78162407875061 15.506480693817139 17.72209858894348 15.128101825714111 14.96234929561615 14.788811683654785 C 14.075115084648132 14.680145025253296 13.215709686279297 14.566787719726562 12.370042562484741 14.383852481842041 C 12.370042562484741 14.383852481842041 20.86170530319214 10.982351541519165 20.86170530319214 10.982351541519165 C 20.86170530319214 10.982351541519165 19.146417140960693 9.267920017242432 19.146417140960693 9.267920017242432 C 18.95114576816559 9.072476387023926 18.95114576816559 8.755857706069946 19.146886825561523 8.561195850372314 C 19.146886825561523 8.561195850372314 20.560402631759644 7.146183967590332 20.560402631759644 7.146183967590332 C 20.755908846855164 6.949958562850952 21.07224142551422 6.949958562850952 21.267512798309326 7.146183967590332 C 21.267512798309326 7.146183967590332 28.992180585861206 14.871679782867432 28.992180585861206 14.871679782867432 C 29.18897843360901 15.067905187606812 29.18897843360901 15.383742094039917 28.992180585861206 15.579185724258423 Z M 18.49989628791809 22.99900770187378 C 19.878303170204163 22.99900770187378 20.99990999698639 21.878724813461304 20.99990999698639 20.499674558639526 C 20.99990999698639 19.12062430381775 19.878303170204163 17.9995596408844 18.49989628791809 17.9995596408844 C 17.121606826782227 17.9995596408844 15.999882578849792 19.12062430381775 15.999882578849792 20.499674558639526 C 15.999882578849792 21.878724813461304 17.121606826782227 22.99900770187378 18.49989628791809 22.99900770187378 Z M 18.49989628791809 18.999449253082275 C 19.328537344932556 18.999449253082275 19.999951481819153 19.67099356651306 19.999951481819153 20.499674558639526 C 19.999951481819153 21.327573776245117 19.328537344932556 21.999118089675903 18.49989628791809 21.999118089675903 C 17.671372652053833 21.999118089675903 16.999958515167236 21.327573776245117 16.999958515167236 20.499674558639526 C 16.999958515167236 19.67099356651306 17.671372652053833 18.999449253082275 18.49989628791809 18.999449253082275 Z M 31.4999440908432 1.9997622966766357 C 30.12153720855713 1.9997622966766357 28.999930381774902 3.1208269596099854 28.999930381774902 4.499095439910889 C 28.999930381774902 5.878145694732666 30.12153720855713 6.999210357666016 31.4999440908432 6.999210357666016 C 32.87835097312927 6.999210357666016 33.9999577999115 5.878145694732666 33.9999577999115 4.499095439910889 C 33.9999577999115 3.1208269596099854 32.87835097312927 1.9997622966766357 31.4999440908432 1.9997622966766357 Z M 31.4999440908432 5.99932074546814 C 30.671303033828735 5.99932074546814 30.000006318092346 5.3269946575164795 30.000006318092346 4.499095439910889 C 30.000006318092346 3.670414447784424 30.671303033828735 2.9996519088745117 31.4999440908432 2.9996519088745117 C 32.328585147857666 2.9996519088745117 32.99999928474426 3.670414447784424 32.99999928474426 4.499095439910889 C 32.99999928474426 5.3269946575164795 32.328585147857666 5.99932074546814 31.4999440908432 5.99932074546814 Z M 9.99989664554596 18.999449253082275 C 9.99989664554596 20.10175132751465 10.896994233131409 20.999228477478027 11.99993109703064 20.999228477478027 C 13.102985382080078 20.999228477478027 13.99996554851532 20.10175132751465 13.99996554851532 18.999449253082275 C 13.99996554851532 17.89636540412903 13.102985382080078 16.99888825416565 11.99993109703064 16.99888825416565 C 10.896994233131409 16.99888825416565 9.99989664554596 17.89636540412903 9.99989664554596 18.999449253082275 Z M 11.99993109703064 17.9995596408844 C 12.552162766456604 17.9995596408844 12.999889612197876 18.44673466682434 12.999889612197876 18.999449253082275 C 12.999889612197876 19.551382064819336 12.552162766456604 19.99933886528015 11.99993109703064 19.99933886528015 C 11.447699427604675 19.99933886528015 10.999972581863403 19.551382064819336 10.999972581863403 18.999449253082275 C 10.999972581863403 18.44673466682434 11.447699427604675 17.9995596408844 11.99993109703064 17.9995596408844 Z M 14.999924063682556 25.99945831298828 C 15.55215573310852 25.99945831298828 15.999882578849792 25.55228328704834 15.999882578849792 24.999568700790405 C 15.999882578849792 24.446072340011597 15.55215573310852 23.99967908859253 14.999924063682556 23.99967908859253 C 14.447692394256592 23.99967908859253 13.99996554851532 24.446072340011597 13.99996554851532 24.999568700790405 C 13.99996554851532 25.55228328704834 14.447692394256592 25.99945831298828 14.999924063682556 25.99945831298828 Z M 30.999964833259583 8.998989582061768 C 30.447733163833618 8.998989582061768 30.000006318092346 9.446946382522583 30.000006318092346 9.998879194259644 C 30.000006318092346 10.552375555038452 30.447733163833618 10.99876880645752 30.999964833259583 10.99876880645752 C 31.552196502685547 10.99876880645752 31.99992334842682 10.552375555038452 31.99992334842682 9.998879194259644 C 31.99992334842682 9.446946382522583 31.552196502685547 8.998989582061768 30.999964833259583 8.998989582061768 Z"/></g></svg>