<svg version="1.1" xmlns="http://www.w3.org/2000/svg" xmlns:xlink="http://www.w3.org/1999/xlink" width="35" height="35"><defs/><g><path fill="rgb(255,255,255)" stroke="none" paint-order="stroke fill markers" fill-rule="evenodd" d=" M 31.164008855819702 12.470525026321411 C 29.915000081062317 12.142179727554321 26.974539637565613 12.146088600158691 22.675751328468323 12.032731294631958 C 22.87982928752899 11.09460186958313 22.925740957260132 10.248721837997437 22.925740957260132 8.747714757919312 C 22.925740957260132 5.159369707107544 20.312415838241577 1.9986553192138672 17.999923706054688 1.9986553192138672 C 16.36718261241913 1.9986553192138672 15.020479440689087 3.333926200866699 14.999930739402771 4.975652694702148 C 14.977503299713135 6.989503860473633 14.355406045913696 10.467618703842163 10.999979257583618 12.23130202293396 C 10.753864526748657 12.361076593399048 10.04980731010437 12.708184480667114 9.947298645973206 12.753527402877808 C 9.947298645973206 12.753527402877808 10.000020742416382 12.798088550567627 10.000020742416382 12.798088550567627 C 9.474561095237732 12.344659328460693 8.747019648551941 11.999114990234375 7.999986290931702 11.999114990234375 C 7.999986290931702 11.999114990234375 4.999993324279785 11.999114990234375 4.999993324279785 11.999114990234375 C 3.3456467390060425 11.999114990234375 1.9998829364776611 13.34454894065857 1.9998829364776611 14.998783826828003 C 1.9998829364776611 14.998783826828003 1.9998829364776611 30.99936294555664 1.9998829364776611 30.99936294555664 C 1.9998829364776611 32.653597831726074 3.3456467390060425 33.99903178215027 4.999993324279785 33.99903178215027 C 4.999993324279785 33.99903178215027 7.999986290931702 33.99903178215027 7.999986290931702 33.99903178215027 C 9.190401911735535 33.99903178215027 10.185428738594055 33.281362771987915 10.667912244796753 32.272873640060425 C 10.679654359817505 32.276782512664795 10.701142430305481 32.28303670883179 10.714763283729553 32.28381848335266 C 10.78122365474701 32.301799297332764 10.85836935043335 32.321343660354614 10.954067587852478 32.34714221954346 C 10.971680760383606 32.35105109214783 10.981309294700623 32.352614641189575 10.999979257583618 32.35886883735657 C 11.576164841651917 32.50115180015564 12.6846204996109 32.76695513725281 15.054648995399475 33.31107020378113 C 15.563434839248657 33.42677283287048 18.24603843688965 33.99903178215027 21.028215169906616 33.99903178215027 C 21.028215169906616 33.99903178215027 26.494052290916443 33.99903178215027 26.494052290916443 33.99903178215027 C 28.161080360412598 33.99903178215027 29.361241936683655 33.35875844955444 30.076101899147034 32.07117581367493 C 30.086904644966125 32.051631450653076 30.317402362823486 31.602892875671387 30.504806518554688 30.99545407295227 C 30.645477056503296 30.538115978240967 30.698081731796265 29.892370223999023 30.52829074859619 29.235679626464844 C 31.60152006149292 28.497684478759766 31.947207927703857 27.38131046295166 32.17289137840271 26.655041933059692 C 32.54875648021698 25.464399337768555 32.435445070266724 24.569267511367798 32.17371332645416 23.928994178771973 C 32.77725803852081 23.358298778533936 33.29297173023224 22.48896551132202 33.51067054271698 21.16385769844055 C 33.64547002315521 20.340649127960205 33.500924587249756 19.495550870895386 33.12106716632843 18.790390253067017 C 33.687506794929504 18.15558934211731 33.94630300998688 17.354270458221436 33.97460150718689 16.61471176147461 C 33.97460150718689 16.61471176147461 33.986226201057434 16.405977964401245 33.986226201057434 16.405977964401245 C 33.99409341812134 16.273858070373535 33.999964475631714 16.192553520202637 33.999964475631714 15.904860496520996 C 33.999964475631714 14.641512870788574 33.125998854637146 13.031057357788086 31.164008855819702 12.470525026321411 Z M 8.999944806098938 30.99936294555664 C 8.999944806098938 31.552077531814575 8.552687644958496 31.999252557754517 7.999986290931702 31.999252557754517 C 7.999986290931702 31.999252557754517 4.999993324279785 31.999252557754517 4.999993324279785 31.999252557754517 C 4.447291970252991 31.999252557754517 3.9999173879623413 31.552077531814575 3.9999173879623413 30.99936294555664 C 3.9999173879623413 30.99936294555664 3.9999173879623413 14.998783826828003 3.9999173879623413 14.998783826828003 C 3.9999173879623413 14.445287466049194 4.447291970252991 13.998112440109253 4.999993324279785 13.998112440109253 C 4.999993324279785 13.998112440109253 7.999986290931702 13.998112440109253 7.999986290931702 13.998112440109253 C 8.552687644958496 13.998112440109253 8.999944806098938 14.445287466049194 8.999944806098938 14.998783826828003 C 8.999944806098938 14.998783826828003 8.999944806098938 30.99936294555664 8.999944806098938 30.99936294555664 Z M 31.977502584457397 16.53340721130371 C 31.95695388317108 17.028270483016968 31.749940395355225 17.99845266342163 30.00001299381256 17.99845266342163 C 28.4999577999115 17.99845266342163 27.99997854232788 17.99845266342163 27.99997854232788 17.99845266342163 C 27.72356915473938 17.99845266342163 27.499999284744263 18.2220401763916 27.499999284744263 18.498788356781006 C 27.499999284744263 18.774754762649536 27.72356915473938 18.998342275619507 27.99997854232788 18.998342275619507 C 27.99997854232788 18.998342275619507 28.4374897480011 18.998342275619507 29.937427520751953 18.998342275619507 C 31.437482714653015 18.998342275619507 31.634750247001648 20.242927312850952 31.53705585002899 20.842548370361328 C 31.41493785381317 21.58914303779602 31.064435720443726 22.998682498931885 29.375919580459595 22.998682498931885 C 27.687403440475464 22.998682498931885 26.999902606010437 22.998682498931885 26.999902606010437 22.998682498931885 C 26.723610639572144 22.998682498931885 26.49992334842682 23.222270011901855 26.49992334842682 23.498236417770386 C 26.49992334842682 23.77498459815979 26.723610639572144 23.999353885650635 26.999902606010437 23.999353885650635 C 26.999902606010437 23.999353885650635 28.18750011920929 23.999353885650635 28.968820452690125 23.999353885650635 C 30.656279802322388 23.999353885650635 30.508798837661743 25.286154747009277 30.26561963558197 26.05385732650757 C 29.947290897369385 27.063910007476807 29.751902103424072 27.99891233444214 27.62599217891693 27.99891233444214 C 26.906200528144836 27.99891233444214 25.994073033332825 27.99891233444214 25.994073033332825 27.99891233444214 C 25.71778106689453 27.99891233444214 25.494093775749207 28.221718072891235 25.494093775749207 28.499248027801514 C 25.494093775749207 28.77443265914917 25.71778106689453 28.99958372116089 25.994073033332825 28.99958372116089 C 25.994073033332825 28.99958372116089 26.687444925308228 28.99958372116089 27.562467336654663 28.99958372116089 C 28.656245350837708 28.99958372116089 28.707910656929016 30.03387141227722 28.593777298927307 30.405214309692383 C 28.4687237739563 30.811737060546875 28.321242809295654 31.112720251083374 28.314432382583618 31.126010417938232 C 28.011603236198425 31.670907258987427 27.525362253189087 31.999252557754517 26.494052290916443 31.999252557754517 C 26.494052290916443 31.999252557754517 21.028215169906616 31.999252557754517 21.028215169906616 31.999252557754517 C 18.281264781951904 31.999252557754517 15.557563781738281 31.37617826461792 15.487228512763977 31.36054277420044 C 11.332985639572144 30.40286898612976 11.114230036735535 30.329382181167603 10.853437662124634 30.25511360168457 C 10.853437662124634 30.25511360168457 10.007770538330078 30.112830638885498 10.007770538330078 29.37483549118042 C 10.007770538330078 29.37483549118042 10.000020742416382 15.5616614818573 10.000020742416382 15.5616614818573 C 10.000020742416382 15.09337854385376 10.298740148544312 14.669656753540039 10.793787717819214 14.5203378200531 C 10.855433821678162 14.496102809906006 10.939507365226746 14.470304250717163 10.999979257583618 14.44450569152832 C 15.568366527557373 12.553393125534058 16.958985209465027 8.404515743255615 16.99996519088745 4.998324155807495 C 17.005836248397827 4.519878149032593 17.37500834465027 3.998434543609619 17.999923706054688 3.998434543609619 C 19.057536005973816 3.998434543609619 20.92570650577545 6.120952367782593 20.92570650577545 8.747714757919312 C 20.92570650577545 11.11805510520935 20.83106505870819 11.526923179626465 19.999958157539368 13.998112440109253 C 30.00001299381256 13.998112440109253 29.929677724838257 14.141958951950073 30.81244993209839 14.373364210128784 C 31.906227946281433 14.686074018478394 31.999930024147034 15.592150688171387 31.999930024147034 15.904860496520996 C 31.999930024147034 16.24727773666382 31.99018406867981 16.19724416732788 31.977502584457397 16.53340721130371 Z M 6.49993109703064 27.99891233444214 C 5.671877145767212 27.99891233444214 4.999993324279785 28.670456647872925 4.999993324279785 29.49913763999939 C 4.999993324279785 30.32703685760498 5.671877145767212 30.99936294555664 6.49993109703064 30.99936294555664 C 7.328102469444275 30.99936294555664 7.999986290931702 30.32703685760498 7.999986290931702 29.49913763999939 C 7.999986290931702 28.670456647872925 7.328102469444275 27.99891233444214 6.49993109703064 27.99891233444214 Z M 6.49993109703064 29.99869155883789 C 6.224578499794006 29.99869155883789 5.9999518394470215 29.773540496826172 5.9999518394470215 29.49913763999939 C 5.9999518394470215 29.223953008651733 6.224578499794006 28.99958372116089 6.49993109703064 28.99958372116089 C 6.7754011154174805 28.99958372116089 6.999910354614258 29.223953008651733 6.999910354614258 29.49913763999939 C 6.999910354614258 29.773540496826172 6.7754011154174805 29.99869155883789 6.49993109703064 29.99869155883789 Z"/></g></svg>