<svg version="1.1" xmlns="http://www.w3.org/2000/svg" xmlns:xlink="http://www.w3.org/1999/xlink" width="35" height="35"><defs/><g><path fill="rgb(13,13,13)" stroke="none" paint-order="stroke fill markers" fill-rule="evenodd" d=" M 9.999996423721313 8.021060466766357 C 9.999996423721313 8.021060466766357 9.999996423721313 4.999501943588257 9.999996423721313 4.999501943588257 C 9.999996423721313 3.3452670574188232 8.654232621192932 1.999833106994629 7.000003457069397 1.999833106994629 C 5.345656871795654 1.999833106994629 3.999893069267273 3.3452670574188232 3.999893069267273 4.999501943588257 C 3.999893069267273 4.999501943588257 3.999893069267273 8.021060466766357 3.999893069267273 8.021060466766357 C 2.7919816970825195 8.934173107147217 1.9999760389328003 10.36872935295105 1.9999760389328003 11.999511003494263 C 1.9999760389328003 13.630292654037476 2.7919816970825195 15.064067125320435 3.999893069267273 15.975616216659546 C 3.999893069267273 15.975616216659546 3.999893069267273 30.998977184295654 3.999893069267273 30.998977184295654 C 3.999893069267273 32.65399384498596 5.345656871795654 33.999427795410156 7.000003457069397 33.999427795410156 C 8.654232621192932 33.999427795410156 9.999996423721313 32.65399384498596 9.999996423721313 30.998977184295654 C 9.999996423721313 30.998977184295654 9.999996423721313 15.975616216659546 9.999996423721313 15.975616216659546 C 11.207907795906067 15.064067125320435 11.999913454055786 13.630292654037476 11.999913454055786 11.999511003494263 C 11.999913454055786 10.36872935295105 11.207907795906067 8.934173107147217 9.999996423721313 8.021060466766357 Z M 5.999927520751953 4.999501943588257 C 5.999927520751953 4.446787357330322 6.4473021030426025 3.999612331390381 7.000003457069397 3.999612331390381 C 7.552704811096191 3.999612331390381 7.999961972236633 4.446787357330322 7.999961972236633 4.999501943588257 C 7.999961972236633 4.999501943588257 7.999961972236633 7.09856653213501 7.999961972236633 7.09856653213501 C 7.676701545715332 7.03446102142334 7.3427557945251465 6.999281167984009 7.000003457069397 6.999281167984009 C 6.65713369846344 6.999281167984009 6.323187947273254 7.03446102142334 5.999927520751953 7.09856653213501 C 5.999927520751953 7.09856653213501 5.999927520751953 4.999501943588257 5.999927520751953 4.999501943588257 Z M 7.999961972236633 30.998977184295654 C 7.999961972236633 31.552473545074463 7.552704811096191 31.99886679649353 7.000003457069397 31.99886679649353 C 6.4473021030426025 31.99886679649353 5.999927520751953 31.552473545074463 5.999927520751953 30.998977184295654 C 5.999927520751953 30.998977184295654 5.999927520751953 16.89732837677002 5.999927520751953 16.89732837677002 C 6.323187947273254 16.964560985565186 6.65713369846344 16.998959064483643 7.000003457069397 16.998959064483643 C 7.3427557945251465 16.998959064483643 7.676701545715332 16.964560985565186 7.999961972236633 16.89732837677002 C 7.999961972236633 16.89732837677002 7.999961972236633 30.998977184295654 7.999961972236633 30.998977184295654 Z M 9.865196943283081 12.83835506439209 C 9.849579930305481 12.891515731811523 9.834902286529541 12.944676399230957 9.816349744796753 12.997055292129517 C 9.721708297729492 13.261295080184937 9.599590301513672 13.51068115234375 9.438488483428955 13.733486890792847 C 9.434613585472107 13.738959312438965 9.428625106811523 13.742868185043335 9.424750208854675 13.749122381210327 C 9.250966906547546 13.987563610076904 9.043835997581482 14.19864273071289 8.808524012565613 14.376105546951294 C 8.804649114608765 14.380014419555664 8.801713585853577 14.381577968597412 8.798778057098389 14.383923292160034 C 8.557595014572144 14.566076755523682 8.289052844047546 14.71148681640625 7.999961972236633 14.813899278640747 C 7.6853907108306885 14.92725658416748 7.352384328842163 14.99917984008789 7.000003457069397 14.99917984008789 C 6.647505164146423 14.99917984008789 6.314498782157898 14.92725658416748 5.999927520751953 14.813899278640747 C 5.71083664894104 14.71148681640625 5.44241189956665 14.566076755523682 5.201111435890198 14.383923292160034 C 5.19817590713501 14.381577968597412 5.195240378379822 14.380014419555664 5.191365480422974 14.376105546951294 C 4.9560534954071045 14.19864273071289 4.74892258644104 13.987563610076904 4.575139284133911 13.749122381210327 C 4.571264386177063 13.742868185043335 4.565393328666687 13.738959312438965 4.561401009559631 13.733486890792847 C 4.400416612625122 13.51068115234375 4.278181195259094 13.261295080184937 4.1835397481918335 12.997055292129517 C 4.164987206459045 12.944676399230957 4.1503095626831055 12.891515731811523 4.134809970855713 12.83835506439209 C 4.054611325263977 12.570988178253174 3.999893069267273 12.292676448822021 3.999893069267273 11.999511003494263 C 3.999893069267273 11.704000234603882 4.054611325263977 11.42568850517273 4.134809970855713 11.15753984451294 C 4.1503095626831055 11.104379177093506 4.164987206459045 11.052000284194946 4.1835397481918335 11.001184940338135 C 4.278181195259094 10.737726926803589 4.400416612625122 10.487559080123901 4.561401009559631 10.263189792633057 C 4.565393328666687 10.256935596466064 4.571264386177063 10.253026723861694 4.575139284133911 10.247554302215576 C 4.74892258644104 10.010676622390747 4.9560534954071045 9.798033952713013 5.191365480422974 9.62057113647461 C 5.195240378379822 9.618225812911987 5.19817590713501 9.614316940307617 5.201111435890198 9.61275339126587 C 5.44241189956665 9.43216347694397 5.71083664894104 9.286753416061401 5.999927520751953 9.182777404785156 C 6.314498782157898 9.070983648300171 6.647505164146423 8.99906039237976 7.000003457069397 8.99906039237976 C 7.352384328842163 8.99906039237976 7.6853907108306885 9.070983648300171 7.999961972236633 9.182777404785156 C 8.289052844047546 9.286753416061401 8.557595014572144 9.43216347694397 8.798778057098389 9.61275339126587 C 8.801713585853577 9.614316940307617 8.804649114608765 9.618225812911987 8.808524012565613 9.62057113647461 C 9.043835997581482 9.798033952713013 9.250966906547546 10.010676622390747 9.424750208854675 10.247554302215576 C 9.428625106811523 10.253026723861694 9.434613585472107 10.256935596466064 9.438488483428955 10.263189792633057 C 9.599590301513672 10.487559080123901 9.721708297729492 10.737726926803589 9.816349744796753 11.001184940338135 C 9.834902286529541 11.052000284194946 9.849579930305481 11.104379177093506 9.865196943283081 11.15753984451294 C 9.94527816772461 11.42568850517273 9.999996423721313 11.704000234603882 9.999996423721313 11.999511003494263 C 9.999996423721313 12.292676448822021 9.94527816772461 12.570988178253174 9.865196943283081 12.83835506439209 Z M 31.999905705451965 8.021060466766357 C 31.999905705451965 8.021060466766357 31.999905705451965 4.999501943588257 31.999905705451965 4.999501943588257 C 31.999905705451965 3.3452670574188232 30.65425932407379 1.999833106994629 28.99991273880005 1.999833106994629 C 27.345683574676514 1.999833106994629 25.999919772148132 3.3452670574188232 25.999919772148132 4.999501943588257 C 25.999919772148132 4.999501943588257 25.999919772148132 8.021060466766357 25.999919772148132 8.021060466766357 C 24.79189097881317 8.934173107147217 24.00000274181366 10.36872935295105 24.00000274181366 11.999511003494263 C 24.00000274181366 13.630292654037476 24.79189097881317 15.064067125320435 25.999919772148132 15.975616216659546 C 25.999919772148132 15.975616216659546 25.999919772148132 30.998977184295654 25.999919772148132 30.998977184295654 C 25.999919772148132 32.65399384498596 27.345683574676514 33.999427795410156 28.99991273880005 33.999427795410156 C 30.65425932407379 33.999427795410156 31.999905705451965 32.65399384498596 31.999905705451965 30.998977184295654 C 31.999905705451965 30.998977184295654 31.999905705451965 15.975616216659546 31.999905705451965 15.975616216659546 C 33.207934498786926 15.064067125320435 33.999940156936646 13.630292654037476 33.999940156936646 11.999511003494263 C 33.999940156936646 10.36872935295105 33.207934498786926 8.934173107147217 31.999905705451965 8.021060466766357 Z M 27.999954223632812 4.999501943588257 C 27.999954223632812 4.446787357330322 28.447211384773254 3.999612331390381 28.99991273880005 3.999612331390381 C 29.552614092826843 3.999612331390381 29.999988675117493 4.446787357330322 29.999988675117493 4.999501943588257 C 29.999988675117493 4.999501943588257 29.999988675117493 7.09856653213501 29.999988675117493 7.09856653213501 C 29.67672824859619 7.03446102142334 29.342782497406006 6.999281167984009 28.99991273880005 6.999281167984009 C 28.6571604013443 6.999281167984009 28.323097229003906 7.03446102142334 27.999954223632812 7.09856653213501 C 27.999954223632812 7.09856653213501 27.999954223632812 4.999501943588257 27.999954223632812 4.999501943588257 Z M 29.999988675117493 30.998977184295654 C 29.999988675117493 31.552473545074463 29.552614092826843 31.99886679649353 28.99991273880005 31.99886679649353 C 28.447211384773254 31.99886679649353 27.999954223632812 31.552473545074463 27.999954223632812 30.998977184295654 C 27.999954223632812 30.998977184295654 27.999954223632812 16.89732837677002 27.999954223632812 16.89732837677002 C 28.323097229003906 16.964560985565186 28.6571604013443 16.998959064483643 28.99991273880005 16.998959064483643 C 29.342782497406006 16.998959064483643 29.67672824859619 16.964560985565186 29.999988675117493 16.89732837677002 C 29.999988675117493 16.89732837677002 29.999988675117493 30.998977184295654 29.999988675117493 30.998977184295654 Z M 31.865106225013733 12.83835506439209 C 31.84960663318634 12.891515731811523 31.8349289894104 12.944676399230957 31.816376447677612 12.997055292129517 C 31.721617579460144 13.261295080184937 31.599499583244324 13.51068115234375 31.438515186309814 13.733486890792847 C 31.43452286720276 13.738959312438965 31.428651809692383 13.742868185043335 31.424776911735535 13.749122381210327 C 31.250993609428406 13.987563610076904 31.04386270046234 14.19864273071289 30.808550715446472 14.376105546951294 C 30.804675817489624 14.380014419555664 30.801740288734436 14.381577968597412 30.798804759979248 14.383923292160034 C 30.557504296302795 14.566076755523682 30.289079546928406 14.71148681640625 29.999988675117493 14.813899278640747 C 29.685417413711548 14.92725658416748 29.352411031723022 14.99917984008789 28.99991273880005 14.99917984008789 C 28.647414445877075 14.99917984008789 28.31440806388855 14.92725658416748 27.999954223632812 14.813899278640747 C 27.7108633518219 14.71148681640625 27.442321181297302 14.566076755523682 27.201138138771057 14.383923292160034 C 27.19808518886566 14.381577968597412 27.19526708126068 14.380014419555664 27.191392183303833 14.376105546951294 C 26.956080198287964 14.19864273071289 26.7489492893219 13.987563610076904 26.57516598701477 13.749122381210327 C 26.571291089057922 13.742868185043335 26.56530261039734 13.738959312438965 26.56142771244049 13.733486890792847 C 26.400325894355774 13.51068115234375 26.278207898139954 13.261295080184937 26.183566451072693 12.997055292129517 C 26.164896488189697 12.944676399230957 26.150336265563965 12.891515731811523 26.134719252586365 12.83835506439209 C 26.054638028144836 12.570988178253174 25.999919772148132 12.292676448822021 25.999919772148132 11.999511003494263 C 25.999919772148132 11.704000234603882 26.054638028144836 11.42568850517273 26.134719252586365 11.15753984451294 C 26.150336265563965 11.104379177093506 26.164896488189697 11.052000284194946 26.183566451072693 11.001184940338135 C 26.278207898139954 10.737726926803589 26.400325894355774 10.487559080123901 26.56142771244049 10.263189792633057 C 26.56530261039734 10.256935596466064 26.571291089057922 10.253026723861694 26.57516598701477 10.247554302215576 C 26.7489492893219 10.010676622390747 26.956080198287964 9.798033952713013 27.191392183303833 9.62057113647461 C 27.19526708126068 9.618225812911987 27.19808518886566 9.614316940307617 27.201138138771057 9.61275339126587 C 27.442321181297302 9.43216347694397 27.7108633518219 9.286753416061401 27.999954223632812 9.182777404785156 C 28.31440806388855 9.070983648300171 28.647414445877075 8.99906039237976 28.99991273880005 8.99906039237976 C 29.352411031723022 8.99906039237976 29.685417413711548 9.070983648300171 29.999988675117493 9.182777404785156 C 30.289079546928406 9.286753416061401 30.557504296302795 9.43216347694397 30.798804759979248 9.61275339126587 C 30.801740288734436 9.614316940307617 30.804675817489624 9.618225812911987 30.808550715446472 9.62057113647461 C 31.04386270046234 9.798033952713013 31.250993609428406 10.010676622390747 31.424776911735535 10.247554302215576 C 31.428651809692383 10.253026723861694 31.43452286720276 10.256935596466064 31.438515186309814 10.263189792633057 C 31.599499583244324 10.487559080123901 31.721617579460144 10.737726926803589 31.816376447677612 11.001184940338135 C 31.8349289894104 11.052000284194946 31.84960663318634 11.104379177093506 31.865106225013733 11.15753984451294 C 31.94530487060547 11.42568850517273 31.999905705451965 11.704000234603882 31.999905705451965 11.999511003494263 C 31.999905705451965 12.292676448822021 31.94530487060547 12.570988178253174 31.865106225013733 12.83835506439209 Z M 20.999892354011536 20.020517587661743 C 20.999892354011536 20.020517587661743 20.999892354011536 4.999501943588257 20.999892354011536 4.999501943588257 C 20.999892354011536 3.3452670574188232 19.654245972633362 1.999833106994629 18.000016808509827 1.999833106994629 C 16.345670223236084 1.999833106994629 14.999906420707703 3.3452670574188232 14.999906420707703 4.999501943588257 C 14.999906420707703 4.999501943588257 14.999906420707703 20.020517587661743 14.999906420707703 20.020517587661743 C 13.79199504852295 20.934412002563477 12.99998939037323 22.36896824836731 12.99998939037323 23.999749898910522 C 12.99998939037323 25.630531549453735 13.79199504852295 27.06352424621582 14.999906420707703 27.975855112075806 C 14.999906420707703 27.975855112075806 14.999906420707703 30.998977184295654 14.999906420707703 30.998977184295654 C 14.999906420707703 32.65399384498596 16.345670223236084 33.999427795410156 18.000016808509827 33.999427795410156 C 19.654245972633362 33.999427795410156 20.999892354011536 32.65399384498596 20.999892354011536 30.998977184295654 C 20.999892354011536 30.998977184295654 20.999892354011536 27.975855112075806 20.999892354011536 27.975855112075806 C 22.207921147346497 27.06352424621582 22.999926805496216 25.630531549453735 22.999926805496216 23.999749898910522 C 22.999926805496216 22.36896824836731 22.207921147346497 20.934412002563477 20.999892354011536 20.020517587661743 Z M 16.999940872192383 4.999501943588257 C 16.999940872192383 4.446787357330322 17.447198033332825 3.999612331390381 18.000016808509827 3.999612331390381 C 18.552600741386414 3.999612331390381 18.999975323677063 4.446787357330322 18.999975323677063 4.999501943588257 C 18.999975323677063 4.999501943588257 18.999975323677063 19.09880542755127 18.999975323677063 19.09880542755127 C 18.67671489715576 19.0346999168396 18.342769145965576 18.998738288879395 18.000016808509827 18.998738288879395 C 17.65714704990387 18.998738288879395 17.323083877563477 19.0346999168396 16.999940872192383 19.09880542755127 C 16.999940872192383 19.09880542755127 16.999940872192383 4.999501943588257 16.999940872192383 4.999501943588257 Z M 18.999975323677063 30.998977184295654 C 18.999975323677063 31.552473545074463 18.552600741386414 31.99886679649353 18.000016808509827 31.99886679649353 C 17.447198033332825 31.99886679649353 16.999940872192383 31.552473545074463 16.999940872192383 30.998977184295654 C 16.999940872192383 30.998977184295654 16.999940872192383 28.89756727218628 16.999940872192383 28.89756727218628 C 17.323083877563477 28.96401810646057 17.65714704990387 28.999197959899902 18.000016808509827 28.999197959899902 C 18.342769145965576 28.999197959899902 18.67671489715576 28.96401810646057 18.999975323677063 28.89756727218628 C 18.999975323677063 28.89756727218628 18.999975323677063 30.998977184295654 18.999975323677063 30.998977184295654 Z M 20.86521029472351 24.839375734329224 C 20.84959328174591 24.892536401748657 20.83491563796997 24.944133520126343 20.816363096237183 24.997294187545776 C 20.721604228019714 25.261533975601196 20.5996036529541 25.51092004776001 20.438501834869385 25.733725786209106 C 20.43450951576233 25.739198207855225 20.428638458251953 25.74388885498047 20.424763560295105 25.749361276626587 C 20.250980257987976 25.987802505493164 20.04384934902191 26.198099851608276 19.808537364006042 26.376344442367554 C 19.804662466049194 26.380253314971924 19.801726937294006 26.382598638534546 19.79879140853882 26.384162187576294 C 19.557490944862366 26.565533876419067 19.289066195487976 26.71172571182251 18.999975323677063 26.813356399536133 C 18.685404062271118 26.926713705062866 18.3525151014328 26.99941873550415 18.000016808509827 26.99941873550415 C 17.647401094436646 26.99941873550415 17.314512133598328 26.926713705062866 16.999940872192383 26.813356399536133 C 16.71085000038147 26.71172571182251 16.442307829856873 26.565533876419067 16.201124787330627 26.384162187576294 C 16.19818925857544 26.382598638534546 16.19525372982025 26.380253314971924 16.191378831863403 26.376344442367554 C 15.956066846847534 26.198099851608276 15.74893593788147 25.987802505493164 15.57515263557434 25.749361276626587 C 15.571277737617493 25.74388885498047 15.565406680107117 25.739198207855225 15.561414361000061 25.733725786209106 C 15.400312542915344 25.51092004776001 15.278311967849731 25.261533975601196 15.183553099632263 24.997294187545776 C 15.165000557899475 24.944133520126343 15.150322914123535 24.892536401748657 15.134705901145935 24.839375734329224 C 15.054624676704407 24.571227073669434 14.999906420707703 24.292133569717407 14.999906420707703 23.999749898910522 C 14.999906420707703 23.70423913002014 15.054624676704407 23.425145626068115 15.134705901145935 23.156996965408325 C 15.150322914123535 23.104618072509766 15.165000557899475 23.051457405090332 15.183553099632263 23.001423835754395 C 15.278311967849731 22.73796582221985 15.400312542915344 22.48779797554016 15.561414361000061 22.262646913528442 C 15.565406680107117 22.257174491882324 15.571277737617493 22.253265619277954 15.57515263557434 22.247793197631836 C 15.74893593788147 22.010915517807007 15.956066846847534 21.798272848129272 16.191378831863403 21.62081003189087 C 16.19525372982025 21.618464708328247 16.19818925857544 21.614555835723877 16.201124787330627 21.61299228668213 C 16.442307829856873 21.433184146881104 16.71085000038147 21.286210536956787 16.999940872192383 21.183016300201416 C 17.314512133598328 21.072004318237305 17.647401094436646 20.99929928779602 18.000016808509827 20.99929928779602 C 18.3525151014328 20.99929928779602 18.685404062271118 21.072004318237305 18.999975323677063 21.183016300201416 C 19.289066195487976 21.286210536956787 19.557490944862366 21.433184146881104 19.79879140853882 21.61299228668213 C 19.801726937294006 21.614555835723877 19.804662466049194 21.618464708328247 19.808537364006042 21.62081003189087 C 20.04384934902191 21.798272848129272 20.250980257987976 22.010915517807007 20.424763560295105 22.247793197631836 C 20.428638458251953 22.253265619277954 20.43450951576233 22.257174491882324 20.438501834869385 22.262646913528442 C 20.5996036529541 22.48779797554016 20.721604228019714 22.73796582221985 20.816363096237183 23.001423835754395 C 20.83491563796997 23.051457405090332 20.84959328174591 23.104618072509766 20.86521029472351 23.156996965408325 C 20.94529151916504 23.425145626068115 20.999892354011536 23.70423913002014 20.999892354011536 23.999749898910522 C 20.999892354011536 24.292133569717407 20.94529151916504 24.571227073669434 20.86521029472351 24.839375734329224 Z"/></g></svg>