<svg version="1.1" xmlns="http://www.w3.org/2000/svg" xmlns:xlink="http://www.w3.org/1999/xlink" width="43" height="34"><defs/><g><path fill="rgb(255,255,255)" stroke="none" paint-order="stroke fill markers" fill-rule="evenodd" d=" M 38.33122229576111 32.94760012626648 C 38.33122229576111 32.94760012626648 4.667400479316711 32.94760012626648 4.667400479316711 32.94760012626648 C 3.1800267696380615 32.94760012626648 1.974346399307251 31.757739305496216 1.974346399307251 30.2895667552948 C 1.974346399307251 30.2895667552948 1.974346399307251 9.02295446395874 1.974346399307251 9.02295446395874 C 1.974346399307251 7.555563688278198 3.1800267696380615 6.3649210929870605 4.667400479316711 6.3649210929870605 C 4.667400479316711 6.3649210929870605 12.83145821094513 6.3649210929870605 12.83145821094513 6.3649210929870605 C 12.83145821094513 6.3649210929870605 12.747384667396545 6.206220865249634 12.747384667396545 4.370614290237427 C 12.747384667396545 2.5357894897460938 14.254485130310059 1.0480725765228271 16.113614201545715 1.0480725765228271 C 16.113614201545715 1.0480725765228271 26.886065363883972 1.0480725765228271 26.886065363883972 1.0480725765228271 C 28.745311856269836 1.0480725765228271 30.25241231918335 2.5357894897460938 30.25241231918335 4.370614290237427 C 30.25241231918335 6.206220865249634 30.33660328388214 6.3649210929870605 30.33660328388214 6.3649210929870605 C 30.33660328388214 6.3649210929870605 38.33122229576111 6.3649210929870605 38.33122229576111 6.3649210929870605 C 39.81847858428955 6.3649210929870605 41.02427637577057 7.555563688278198 41.02427637577057 9.02295446395874 C 41.02427637577057 9.02295446395874 41.02427637577057 30.2895667552948 41.02427637577057 30.2895667552948 C 41.02427637577057 31.757739305496216 39.81847858428955 32.94760012626648 38.33122229576111 32.94760012626648 Z M 21.559959411621094 27.595571756362915 C 26.022080540657043 27.595571756362915 29.63935649394989 24.025989294052124 29.63935649394989 19.621471643447876 C 29.63935649394989 15.216172218322754 26.022080540657043 11.645807981491089 21.559959411621094 11.645807981491089 C 17.09795570373535 11.645807981491089 13.480679750442505 15.216172218322754 13.480679750442505 19.621471643447876 C 13.480679750442505 24.025989294052124 17.09795570373535 27.595571756362915 21.559959411621094 27.595571756362915 Z"/></g></svg>