<svg version="1.1" xmlns="http://www.w3.org/2000/svg" xmlns:xlink="http://www.w3.org/1999/xlink" width="35" height="31"><defs/><g><path fill="rgb(243,156,18)" stroke="none" paint-order="stroke fill markers" fill-rule="evenodd" d=" M 33.92371714115143 18.45400643348694 C 33.92371714115143 18.45400643348694 29.921886920928955 3.4486262798309326 29.921886920928955 3.4486262798309326 C 29.679647088050842 2.595710277557373 28.889520168304443 1.9984345436096191 27.999937534332275 1.9984345436096191 C 27.999937534332275 1.9984345436096191 17.999882698059082 1.9984345436096191 17.999882698059082 1.9984345436096191 C 17.999882698059082 1.9984345436096191 7.999945282936096 1.9984345436096191 7.999945282936096 1.9984345436096191 C 7.110362648963928 1.9984345436096191 6.320235729217529 2.595710277557373 6.0779958963394165 3.4486262798309326 C 6.0779958963394165 3.4486262798309326 2.0761656761169434 18.45400643348694 2.0761656761169434 18.45400643348694 C 2.0253223180770874 18.63694167137146 1.9999593496322632 18.820658683776855 1.9999593496322632 18.998903274536133 C 1.9999593496322632 18.998903274536133 1.9999593496322632 25.99891233444214 1.9999593496322632 25.99891233444214 C 1.9999593496322632 28.20820713043213 3.7909841537475586 29.999252557754517 5.999910831451416 29.999252557754517 C 5.999910831451416 29.999252557754517 29.999971985816956 29.999252557754517 29.999971985816956 29.999252557754517 C 32.20889866352081 29.999252557754517 33.99992346763611 28.20820713043213 33.99992346763611 25.99891233444214 C 33.99992346763611 25.99891233444214 33.99992346763611 18.998903274536133 33.99992346763611 18.998903274536133 C 33.99992346763611 18.820658683776855 33.974560499191284 18.63694167137146 33.92371714115143 18.45400643348694 Z M 32.000006437301636 25.99891233444214 C 32.000006437301636 27.10121440887451 31.102439165115356 27.99869155883789 29.999971985816956 27.99869155883789 C 29.999971985816956 27.99869155883789 5.999910831451416 27.99869155883789 5.999910831451416 27.99869155883789 C 4.897443652153015 27.99869155883789 3.9999938011169434 27.10121440887451 3.9999938011169434 25.99891233444214 C 3.9999938011169434 25.99891233444214 3.9999938011169434 18.998903274536133 3.9999938011169434 18.998903274536133 C 3.9999938011169434 18.998903274536133 8.000884652137756 3.997431993484497 8.000884652137756 3.997431993484497 C 8.000884652137756 3.997431993484497 27.998998165130615 3.997431993484497 27.998998165130615 3.997431993484497 C 27.998998165130615 3.997431993484497 32.000006437301636 18.998903274536133 32.000006437301636 18.998903274536133 C 32.000006437301636 18.998903274536133 32.000006437301636 25.99891233444214 32.000006437301636 25.99891233444214 Z M 25.74216365814209 5.999556541442871 C 25.74216365814209 5.999556541442871 10.257719159126282 5.999556541442871 10.257719159126282 5.999556541442871 C 9.804708361625671 5.999556541442871 9.408177137374878 6.302885055541992 9.290990829467773 6.743024110794067 C 9.290990829467773 6.743024110794067 5.845619440078735 18.74169945716858 5.845619440078735 18.74169945716858 C 5.766595005989075 19.041900873184204 5.830002427101135 19.36164665222168 6.019402742385864 19.60868740081787 C 6.208920478820801 19.854164600372314 6.5020036697387695 19.998011112213135 6.812465190887451 19.998011112213135 C 6.812465190887451 19.998011112213135 9.718756079673767 19.998011112213135 9.718756079673767 19.998011112213135 C 9.718756079673767 19.998011112213135 10.859385132789612 19.998011112213135 10.859385132789612 19.998011112213135 C 10.859385132789612 19.998011112213135 11.380852460861206 19.998011112213135 11.380852460861206 19.998011112213135 C 11.380852460861206 19.998011112213135 12.828068137168884 22.893703937530518 12.828068137168884 22.893703937530518 C 13.166945576667786 23.571502447128296 13.859378099441528 23.998351335525513 14.61721420288086 23.998351335525513 C 14.61721420288086 23.998351335525513 21.38278603553772 23.998351335525513 21.38278603553772 23.998351335525513 C 22.140504717826843 23.998351335525513 22.832937240600586 23.571502447128296 23.171814680099487 22.893703937530518 C 23.171814680099487 22.893703937530518 24.619030356407166 19.998011112213135 24.619030356407166 19.998011112213135 C 24.619030356407166 19.998011112213135 25.14049768447876 19.998011112213135 25.14049768447876 19.998011112213135 C 25.14049768447876 19.998011112213135 26.281244158744812 19.998011112213135 26.281244158744812 19.998011112213135 C 26.281244158744812 19.998011112213135 29.18741762638092 19.998011112213135 29.18741762638092 19.998011112213135 C 29.49799656867981 19.998011112213135 29.79096233844757 19.854164600372314 29.980480074882507 19.60868740081787 C 30.169880390167236 19.36164665222168 30.233405232429504 19.041900873184204 30.154263377189636 18.74169945716858 C 30.154263377189636 18.74169945716858 26.708891987800598 6.743024110794067 26.708891987800598 6.743024110794067 C 26.591705679893494 6.302885055541992 26.195291876792908 5.999556541442871 25.74216365814209 5.999556541442871 Z M 26.281244158744812 17.999013662338257 C 26.281244158744812 17.999013662338257 24.619030356407166 17.999013662338257 24.619030356407166 17.999013662338257 C 23.857319355010986 17.999013662338257 23.171814680099487 18.42117190361023 22.830001711845398 19.103661060333252 C 22.830001711845398 19.103661060333252 21.38278603553772 21.99857211112976 21.38278603553772 21.99857211112976 C 21.38278603553772 21.99857211112976 14.61721420288086 21.99857211112976 14.61721420288086 21.99857211112976 C 14.61721420288086 21.99857211112976 13.169881105422974 19.103661060333252 13.169881105422974 19.103661060333252 C 12.828068137168884 18.42117190361023 12.142563462257385 17.999013662338257 11.380852460861206 17.999013662338257 C 11.380852460861206 17.999013662338257 9.718756079673767 17.999013662338257 9.718756079673767 17.999013662338257 C 9.718756079673767 17.999013662338257 7.333932518959045 17.999013662338257 7.333932518959045 17.999013662338257 C 7.333932518959045 17.999013662338257 10.257719159126282 6.998664379119873 10.257719159126282 6.998664379119873 C 10.257719159126282 6.998664379119873 25.74216365814209 6.998664379119873 25.74216365814209 6.998664379119873 C 25.74216365814209 6.998664379119873 28.665950298309326 17.999013662338257 28.665950298309326 17.999013662338257 C 28.665950298309326 17.999013662338257 26.281244158744812 17.999013662338257 26.281244158744812 17.999013662338257 Z"/></g></svg>