<svg version="1.1" xmlns="http://www.w3.org/2000/svg" xmlns:xlink="http://www.w3.org/1999/xlink" width="30" height="29"><defs/><g><path fill="rgb(13,13,13)" stroke="none" paint-order="stroke fill markers" fill-rule="evenodd" d=" M 28.498496651649475 11.146974802017212 C 28.26353693008423 10.46839451789856 27.659287691116333 9.971967697143555 26.932098507881165 9.863301038742065 C 26.932098507881165 9.863301038742065 19.854890942573547 8.81103253364563 19.854890942573547 8.81103253364563 C 19.854890942573547 8.81103253364563 16.77775228023529 2.4239346981048584 16.77775228023529 2.4239346981048584 C 16.454844117164612 1.7531721591949463 15.761824488639832 1.3239779472351074 14.99976122379303 1.3239779472351074 C 14.23851990699768 1.3239779472351074 13.5455002784729 1.7531721591949463 13.221652746200562 2.4239346981048584 C 13.221652746200562 2.4239346981048584 10.145453453063965 8.81103253364563 10.145453453063965 8.81103253364563 C 10.145453453063965 8.81103253364563 3.0673065185546875 9.863301038742065 3.0673065185546875 9.863301038742065 C 2.3402347564697266 9.971967697143555 1.7358680963516235 10.46839451789856 1.501847743988037 11.146974802017212 C 1.2677099704742432 11.827900409698486 1.4445462226867676 12.577622175216675 1.958381175994873 13.08968448638916 C 1.958381175994873 13.08968448638916 7.144755959510803 18.268940687179565 7.144755959510803 18.268940687179565 C 7.144755959510803 18.268940687179565 5.942011117935181 25.451884984970093 5.942011117935181 25.451884984970093 C 5.81989312171936 26.175026416778564 6.1336424350738525 26.901294946670532 6.747989892959595 27.325016736984253 C 7.085810542106628 27.556421995162964 7.482576608657837 27.67446994781494 7.879342675209045 27.67446994781494 C 8.205538630485535 27.67446994781494 8.532556533813477 27.593947172164917 8.829749464988708 27.436028718948364 C 8.829749464988708 27.436028718948364 14.99976122379303 24.11426877975464 14.99976122379303 24.11426877975464 C 14.99976122379303 24.11426877975464 21.170594930648804 27.436028718948364 21.170594930648804 27.436028718948364 C 21.467670440673828 27.593947172164917 21.79468834400177 27.67446994781494 22.120179772377014 27.67446994781494 C 22.517767786979675 27.67446994781494 22.91371190547943 27.556421995162964 23.252354502677917 27.325016736984253 C 23.866584539413452 26.901294946670532 24.17951190471649 26.175026416778564 24.05833327770233 25.451884984970093 C 24.05833327770233 25.451884984970093 22.854766488075256 18.268940687179565 22.854766488075256 18.268940687179565 C 22.854766488075256 18.268940687179565 28.04196321964264 13.08968448638916 28.04196321964264 13.08968448638916 C 28.555680751800537 12.577622175216675 28.73169505596161 11.827900409698486 28.498496651649475 11.146974802017212 Z M 21.449470162391663 16.93288803100586 C 21.01454222202301 17.367554664611816 20.816922426223755 17.977338790893555 20.917317509651184 18.576178073883057 C 20.917317509651184 18.576178073883057 22.120179772377014 25.760685920715332 22.120179772377014 25.760685920715332 C 22.120179772377014 25.760685920715332 15.950168013572693 22.43970775604248 15.950168013572693 22.43970775604248 C 15.653797030448914 22.281007528305054 15.326779127120972 22.20048475265503 14.99976122379303 22.20048475265503 C 14.673447847366333 22.20048475265503 14.346429944038391 22.281007528305054 14.050058960914612 22.43970775604248 C 14.050058960914612 22.43970775604248 7.879342675209045 25.760685920715332 7.879342675209045 25.760685920715332 C 7.879342675209045 25.760685920715332 9.083026885986328 18.576178073883057 9.083026885986328 18.576178073883057 C 9.18330454826355 17.977338790893555 8.985802173614502 17.367554664611816 8.55087423324585 16.93288803100586 C 8.55087423324585 16.93288803100586 3.3644994497299194 11.754413604736328 3.3644994497299194 11.754413604736328 C 3.3644994497299194 11.754413604736328 10.441824436187744 10.701363325119019 10.441824436187744 10.701363325119019 C 11.088345289230347 10.60442328453064 11.64539122581482 10.20024585723877 11.923444509506226 9.62329626083374 C 11.923444509506226 9.62329626083374 14.99976122379303 3.237761974334717 14.99976122379303 3.237761974334717 C 14.99976122379303 3.237761974334717 18.07678246498108 9.62329626083374 18.07678246498108 9.62329626083374 C 18.354953169822693 10.20024585723877 18.911059737205505 10.60442328453064 19.557698011398315 10.701363325119019 C 19.557698011398315 10.701363325119019 26.635844945907593 11.754413604736328 26.635844945907593 11.754413604736328 C 26.635844945907593 11.754413604736328 21.449470162391663 16.93288803100586 21.449470162391663 16.93288803100586 Z"/></g></svg>