<svg version="1.1" xmlns="http://www.w3.org/2000/svg" xmlns:xlink="http://www.w3.org/1999/xlink" width="36" height="35"><defs/><g><path fill="rgb(255,255,255)" stroke="none" paint-order="stroke fill markers" fill-rule="evenodd" d=" M 33.1094012260437 30.33485460281372 C 32.90919816493988 30.201952934265137 29.261627554893494 27.809722900390625 23.8368878364563 26.636279344558716 C 25.827058911323547 24.113492965698242 27.104483604431152 20.722936868667603 27.647439002990723 18.46673560142517 C 28.400343418121338 15.338073968887329 28.108317017555237 9.218343019485474 25.104449152946472 5.404846906661987 C 23.348533272743225 3.1767895221710205 20.89149570465088 1.9986553192138672 17.99999988079071 1.9986553192138672 C 15.108386635780334 1.9986553192138672 12.651349067687988 3.1767895221710205 10.895433187484741 5.404846906661987 C 7.891565322875977 9.218343019485474 7.5995389223098755 15.338073968887329 8.35244333744049 18.46673560142517 C 8.895516157150269 20.722936868667603 10.172823429107666 24.113492965698242 12.162994503974915 26.636279344558716 C 6.73825478553772 27.809722900390625 3.0908015966415405 30.201952934265137 2.8905985355377197 30.33485460281372 C 2.1571860313415527 30.823463678359985 1.8300507068634033 31.735012769699097 2.0859113931655884 32.577765703201294 C 2.3407152891159058 33.421300411224365 3.1191000938415527 33.99903178215027 3.9999935626983643 33.99903178215027 C 3.9999935626983643 33.99903178215027 31.99988877773285 33.99903178215027 31.99988877773285 33.99903178215027 C 32.88089966773987 33.99903178215027 33.65916705131531 33.421300411224365 33.91408836841583 32.577765703201294 C 34.16983163356781 31.735012769699097 33.84281373023987 30.823463678359985 33.1094012260437 30.33485460281372 Z M 22.266497373580933 25.39716672897339 C 22.266497373580933 25.39716672897339 21.93947947025299 25.812288999557495 21.93947947025299 25.812288999557495 C 19.55465590953827 28.551626920700073 16.445226430892944 28.551626920700073 14.060402870178223 25.812288999557495 C 14.060402870178223 25.812288999557495 13.73338496685028 25.39716672897339 13.73338496685028 25.39716672897339 C 10.948155283927917 21.867454767227173 9.566343188285828 17.201042652130127 10.161081314086914 12.74805498123169 C 10.706972241401672 8.468621253967285 13.15919554233551 3.998434543609619 17.99999988079071 3.998434543609619 C 22.84080421924591 3.998434543609619 25.29291009902954 8.468621253967285 25.8388010263443 12.74805498123169 C 26.430603623390198 17.202606201171875 25.053605794906616 21.8666729927063 22.266497373580933 25.39716672897339 Z M 3.9999935626983643 31.999252557754517 C 4.137611150741577 31.907003164291382 7.526385545730591 29.685199975967407 12.585828065872192 28.59149742126465 C 12.585828065872192 28.59149742126465 15.07022476196289 28.052854776382446 15.07022476196289 28.052854776382446 C 15.956049919128418 28.636058568954468 16.92970609664917 28.99958372116089 17.99999988079071 28.99958372116089 C 19.07029366493225 28.99958372116089 20.043832421302795 28.636058568954468 20.929657578468323 28.052854776382446 C 20.929657578468323 28.052854776382446 23.41405427455902 28.59149742126465 23.41405427455902 28.59149742126465 C 28.434512972831726 29.676600456237793 31.81048846244812 31.8733868598938 31.99988877773285 31.999252557754517 C 31.99988877773285 31.999252557754517 3.9999935626983643 31.999252557754517 3.9999935626983643 31.999252557754517 Z"/></g></svg>