<svg version="1.1" xmlns="http://www.w3.org/2000/svg" xmlns:xlink="http://www.w3.org/1999/xlink" width="31" height="31"><defs/><g><path fill="rgb(13,13,13)" stroke="none" paint-order="stroke fill markers" fill-rule="evenodd" d=" M 15.49997615814209 1.5492393970489502 C 7.795504808425903 1.5492393970489502 1.549991250038147 7.794836044311523 1.549991250038147 15.499223947525024 C 1.549991250038147 23.203611850738525 7.795504808425903 29.4492084980011 15.49997615814209 29.4492084980011 C 23.204447507858276 29.4492084980011 29.449961066246033 23.203611850738525 29.449961066246033 15.499223947525024 C 29.449961066246033 7.794836044311523 23.204447507858276 1.5492393970489502 15.49997615814209 1.5492393970489502 Z M 27.6271151304245 15.048921823501587 C 27.6271151304245 15.048921823501587 22.23055648803711 15.048921823501587 22.23055648803711 15.048921823501587 C 22.18135702610016 13.056178569793701 21.82721483707428 11.150994062423706 21.197954893112183 9.408418655395508 C 22.411737322807312 8.901046991348267 23.534870624542236 8.227157354354858 24.559722423553467 7.4313108921051025 C 26.380807042121887 9.474087715148926 27.519909620285034 12.128212213516235 27.6271151304245 15.048921823501587 Z M 15.002580165863037 27.623764991760254 C 13.506634712219238 26.378398180007935 12.252341985702515 24.76090669631958 11.333991169929504 22.883084297180176 C 12.511725306510925 22.51486849784851 13.760616660118103 22.313170671463013 15.049900889396667 22.272518396377563 C 15.049900889396667 22.272518396377563 15.049900889396667 27.626110315322876 15.049900889396667 27.626110315322876 C 15.03416645526886 27.625328540802002 15.018314599990845 27.624546766281128 15.002580165863037 27.623764991760254 Z M 15.99655020236969 3.374682903289795 C 17.693755507469177 4.788131237030029 19.078855395317078 6.68080735206604 20.015758752822876 8.887756824493408 C 18.733519792556763 9.32711410522461 17.3693208694458 9.581190824508667 15.949934005737305 9.62653374671936 C 15.949934005737305 9.62653374671936 15.949934005737305 3.372337579727173 15.949934005737305 3.372337579727173 C 15.96578586101532 3.373119354248047 15.980698347091675 3.373901128768921 15.99655020236969 3.374682903289795 Z M 17.495078921318054 3.5279107093811035 C 19.978888511657715 3.940687656402588 22.208598732948303 5.100841045379639 23.94279170036316 6.780874490737915 C 23.000604391098022 7.502452373504639 21.970468640327454 8.115363597869873 20.85860776901245 8.578955888748169 C 20.038655877113342 6.637027978897095 18.88992476463318 4.921032905578613 17.495078921318054 3.5279107093811035 Z M 15.049900889396667 3.372337579727173 C 15.049900889396667 3.372337579727173 15.049900889396667 9.62653374671936 15.049900889396667 9.62653374671936 C 13.630514025688171 9.581190824508667 12.266432523727417 9.32711410522461 10.984076142311096 8.887756824493408 C 11.920979499816895 6.68080735206604 13.306196808815002 4.788131237030029 15.003284692764282 3.374682903289795 C 15.019136548042297 3.373901128768921 15.03416645526886 3.373119354248047 15.049900889396667 3.372337579727173 Z M 10.141227126121521 8.578955888748169 C 9.029366254806519 8.115363597869873 7.999347925186157 7.502452373504639 7.0571606159210205 6.780874490737915 C 8.791236162185669 5.100841045379639 11.021063804626465 3.940687656402588 13.504873394966125 3.5279107093811035 C 12.110027551651001 4.921032905578613 10.961296439170837 6.637027978897095 10.141227126121521 8.578955888748169 Z M 10.644846439361572 9.717219591140747 C 12.032647013664246 10.19957447052002 13.510979294776917 10.47944974899292 15.049900889396667 10.526356220245361 C 15.049900889396667 10.526356220245361 15.049900889396667 15.048921823501587 15.049900889396667 15.048921823501587 C 15.049900889396667 15.048921823501587 9.6693115234375 15.048921823501587 9.6693115234375 15.048921823501587 C 9.71757161617279 13.16484522819519 10.051634788513184 11.36363673210144 10.644846439361572 9.717219591140747 Z M 15.049900889396667 15.949526071548462 C 15.049900889396667 15.949526071548462 15.049900889396667 21.37191414833069 15.049900889396667 21.37191414833069 C 13.630514025688171 21.41491174697876 12.258565306663513 21.64788055419922 10.964819073677063 22.0637845993042 C 10.185142636299133 20.20863366127014 9.725556254386902 18.14084005355835 9.6693115234375 15.949526071548462 C 9.6693115234375 15.949526071548462 15.049900889396667 15.949526071548462 15.049900889396667 15.949526071548462 Z M 13.504873394966125 27.470537185668945 C 11.279390335083008 27.100757837295532 9.257985234260559 26.131357431411743 7.614441394805908 24.7241632938385 C 8.501205921173096 24.10968852043152 9.459245085716248 23.589808464050293 10.483157515525818 23.193448781967163 C 11.268000483512878 24.82110333442688 12.295552968978882 26.265822649002075 13.504873394966125 27.470537185668945 Z M 15.949934005737305 27.626110315322876 C 15.949934005737305 27.626110315322876 15.949934005737305 22.272518396377563 15.949934005737305 22.272518396377563 C 17.239335656166077 22.313170671463013 18.488227009773254 22.51486849784851 19.665961146354675 22.883084297180176 C 18.747492909431458 24.76090669631958 17.49331760406494 26.378398180007935 15.997372150421143 27.623764991760254 C 15.981637716293335 27.624546766281128 15.96578586101532 27.625328540802002 15.949934005737305 27.626110315322876 Z M 20.516677379608154 23.193448781967163 C 21.540707230567932 23.589808464050293 22.498746395111084 24.10968852043152 23.38551092147827 24.7241632938385 C 21.741849660873413 26.131357431411743 19.720561981201172 27.100757837295532 17.495078921318054 27.470537185668945 C 18.704399347305298 26.265822649002075 19.731834411621094 24.82110333442688 20.516677379608154 23.193448781967163 Z M 20.035133242607117 22.0637845993042 C 18.741387009620667 21.64788055419922 17.3693208694458 21.41491174697876 15.949934005737305 21.37191414833069 C 15.949934005737305 21.37191414833069 15.949934005737305 15.949526071548462 15.949934005737305 15.949526071548462 C 15.949934005737305 15.949526071548462 21.33064079284668 15.949526071548462 21.33064079284668 15.949526071548462 C 21.274396061897278 18.14084005355835 20.81469225883484 20.20863366127014 20.035133242607117 22.0637845993042 Z M 15.949934005737305 15.048921823501587 C 15.949934005737305 15.048921823501587 15.949934005737305 10.526356220245361 15.949934005737305 10.526356220245361 C 17.488973021507263 10.47944974899292 18.967187881469727 10.19957447052002 20.3549884557724 9.717219591140747 C 20.948317527770996 11.36363673210144 21.28226327896118 13.16484522819519 21.33064079284668 15.048921823501587 C 21.33064079284668 15.048921823501587 15.949934005737305 15.048921823501587 15.949934005737305 15.048921823501587 Z M 6.440229892730713 7.4313108921051025 C 7.464964270591736 8.227157354354858 8.588214993476868 8.901046991348267 9.801997423171997 9.408418655395508 C 9.172620058059692 11.150994062423706 8.818477869033813 13.056178569793701 8.769278407096863 15.048921823501587 C 8.769278407096863 15.048921823501587 3.37283718585968 15.048921823501587 3.37283718585968 15.048921823501587 C 3.4800426959991455 12.128212213516235 4.6191452741622925 9.474087715148926 6.440229892730713 7.4313108921051025 Z M 3.37283718585968 15.949526071548462 C 3.37283718585968 15.949526071548462 8.769278407096863 15.949526071548462 8.769278407096863 15.949526071548462 C 8.825523138046265 18.248724937438965 9.305423378944397 20.419712781906128 10.12185263633728 22.37258553504944 C 8.98192811012268 22.816633462905884 7.918562173843384 23.410000324249268 6.937625885009766 24.10968852043152 C 4.8239277601242065 22.00749683380127 3.4906105995178223 19.13213014602661 3.37283718585968 15.949526071548462 Z M 24.062326431274414 24.10968852043152 C 23.081390142440796 23.410000324249268 22.01790678501129 22.816633462905884 20.877982258796692 22.37258553504944 C 21.694528937339783 20.419712781906128 22.174311757087708 18.248724937438965 22.23055648803711 15.949526071548462 C 22.23055648803711 15.949526071548462 27.6271151304245 15.949526071548462 27.6271151304245 15.949526071548462 C 27.509341716766357 19.13213014602661 26.176024556159973 22.00749683380127 24.062326431274414 24.10968852043152 Z"/></g></svg>