<svg width="20" height="18" fill="none" xmlns="http://www.w3.org/2000/svg"><path fill-rule="evenodd" clip-rule="evenodd" d="M0 2a2 2 0 012-2h11a7 7 0 017 7v6.871c0 .624-.505 1.129-1.129 1.129h-.906a3.501 3.501 0 01-6.93 0h-3.07a3.5 3.5 0 01-6.689.865A2 2 0 010 14V2zm7.663 11h3.674A3.515 3.515 0 0113 11.337V10H2v2.05a3.5 3.5 0 015.663.95zM13 14.5a1.5 1.5 0 103 0 1.5 1.5 0 00-3 0zM2 8h11V2H2v6zm13 3.035c1.18.17 2.17.926 2.663 1.965H18V8h-3v3.035zM15 6h2.9A5.009 5.009 0 0015 2.416V6zM4.5 13a1.5 1.5 0 100 3 1.5 1.5 0 000-3z" fill="#2AB997"/></svg>