<svg width="21" height="20" fill="none" xmlns="http://www.w3.org/2000/svg"><path fill-rule="evenodd" clip-rule="evenodd" d="M7.124 0h-4a2.5 2.5 0 00-2.5 2.5v4a2.5 2.5 0 002.5 2.5h4a2.5 2.5 0 002.5-2.5v-4a2.5 2.5 0 00-2.5-2.5zm-4.5 2.5a.5.5 0 01.5-.5h4a.5.5 0 01.5.5v4a.5.5 0 01-.5.5h-4a.5.5 0 01-.5-.5v-4zm4.5 8.5h-4a2.5 2.5 0 00-2.5 2.5v4a2.5 2.5 0 002.5 2.5h4a2.5 2.5 0 002.5-2.5v-4a2.5 2.5 0 00-2.5-2.5zm-4.5 2.5a.5.5 0 01.5-.5h4a.5.5 0 01.5.5v4a.5.5 0 01-.5.5h-4a.5.5 0 01-.5-.5v-4zm11.5-2.5h4a2.5 2.5 0 012.5 2.5v4a2.5 2.5 0 01-2.5 2.5h-4a2.5 2.5 0 01-2.5-2.5v-4a2.5 2.5 0 012.5-2.5zm0 2a.5.5 0 00-.5.5v4a.5.5 0 00.5.5h4a.5.5 0 00.5-.5v-4a.5.5 0 00-.5-.5h-4zm4-13h-4a2.5 2.5 0 00-2.5 2.5v4a2.5 2.5 0 002.5 2.5h4a2.5 2.5 0 002.5-2.5v-4a2.5 2.5 0 00-2.5-2.5zm-4.5 2.5a.5.5 0 01.5-.5h4a.5.5 0 01.5.5v4a.5.5 0 01-.5.5h-4a.5.5 0 01-.5-.5v-4z" fill="#2AB997"/></svg>