<svg width="20" height="17" fill="none" xmlns="http://www.w3.org/2000/svg"><path d="M11.053 16.7a2 2 0 01-2.081.016l-.004-.003-.007-.004-.02-.012a30.294 30.294 0 01-1.191-.778 32.586 32.586 0 01-2.687-2.06c-.998-.855-2.067-1.892-2.96-3.046C1.225 9.675.426 8.305.13 6.787-.205 5.055.097 3.327 1.155 2 2.22.665 3.842 0 5.607 0c1.824 0 3.34.859 4.28 1.545l.112.082.112-.082C11.051.859 12.568 0 14.391 0c3.945 0 6.221 3.655 5.46 6.867-.35 1.474-1.158 2.815-2.04 3.941-.893 1.142-1.949 2.174-2.931 3.028a33.846 33.846 0 01-3.728 2.801l-.04.026-.029.018-.02.013-.006.004-.004.002z" fill="#2AB997"/></svg>