<svg width="21" height="18" fill="none" xmlns="http://www.w3.org/2000/svg"><path fill-rule="evenodd" clip-rule="evenodd" d="M9.226 17.216l1.028-1.716 1.053 1.7a2 2 0 01-2.081.016zm-.48-13.709C7.973 2.982 6.963 2.5 5.862 2.5c-2.525 0-4.008 1.857-3.514 4.406.846 4.365 7.906 8.594 7.906 8.594l-1.028 1.716-.004-.003-.007-.004-.02-.012a30.266 30.266 0 01-1.191-.778 32.588 32.588 0 01-2.687-2.06c-.997-.855-2.067-1.892-2.959-3.046C1.478 10.175.68 8.805.385 7.287.049 5.555.351 3.827 1.409 2.5c1.065-1.335 2.687-2 4.453-2 1.824 0 3.34.859 4.28 1.545l.112.082.112-.082C11.306 1.359 12.822.5 14.646.5c3.945 0 6.22 3.655 5.46 6.867-.35 1.474-1.159 2.815-2.04 3.941-.893 1.142-1.95 2.174-2.932 3.028a33.827 33.827 0 01-3.767 2.827l-.03.018-.02.013-.006.004-.004.002-1.053-1.7s6.88-4.264 7.905-8.594c.494-2.085-.988-4.406-3.513-4.406-1.101 0-2.111.482-2.884 1.007-.923.627-1.508 1.314-1.508 1.314s-.585-.687-1.508-1.314z" fill="#839393"/></svg>