<svg width="21" height="20" fill="none" xmlns="http://www.w3.org/2000/svg"><path fill-rule="evenodd" clip-rule="evenodd" d="M4.818 1.998zm.043.068L6.868 5.26c-.242.23-.507.458-.792.703-.244.21-.504.434-.777.683a1.927 1.927 0 00-.37 2.38c2.318 4.08 5.48 5.937 6.896 6.604.852.401 1.779.084 2.294-.572l1.39-1.768c0-.001 0 0 0 0l.002-.001a.02.02 0 01.006 0l.006.002c.81.5 1.939 1.178 2.976 1.753-.186 1.125-.614 1.78-1.086 2.18-.495.421-1.136.642-1.85.722-1.428.16-2.876-.273-3.197-.378a27.943 27.943 0 01-4.375-2.862c-2.14-1.71-4.288-3.988-5.109-6.601-.6-1.91-.374-3.253.098-4.18.456-.896 1.194-1.505 1.881-1.859zM4.135.176c.946-.449 1.924.02 2.38.744l2.1 3.341c.424.676.453 1.663-.237 2.34-.296.29-.707.646-1.09.977-.21.182-.412.357-.581.509 1.995 3.475 4.663 5.082 5.877 5.67l1.35-1.72a2.01 2.01 0 012.638-.467c.8.494 1.906 1.158 2.908 1.713.668.37 1.147 1.141 1.011 2.012-.243 1.565-.879 2.704-1.784 3.473-.89.756-1.951 1.076-2.923 1.185-1.911.214-3.74-.365-4.073-.477a1.641 1.641 0 01-.23-.096c-.359-.182-2.47-1.284-4.737-3.093-2.242-1.79-4.771-4.38-5.775-7.573-.737-2.346-.519-4.247.225-5.71C1.925 1.568 3.11.663 4.134.176z" fill="#2AB997"/></svg>