<svg width="49" height="54" fill="none" xmlns="http://www.w3.org/2000/svg"><path fill-rule="evenodd" clip-rule="evenodd" d="M24.955 24.55l-9.333-2.666-9.099 2.6a.184.184 0 01-.235-.178 18.398 18.398 0 01.85-5.545C9.49 11.296 16.468 5.884 24.71 5.884h.488c8.242 0 15.22 5.412 17.574 12.877.043.14.086.28.127.42a18.397 18.397 0 01.722 5.125c0 .122-.117.21-.235.177l-9.099-2.6-9.333 2.667zm9.333 2.88l7.634 2.181c3.525 1.007 7.033-1.64 7.033-5.305C48.955 11.186 38.32.55 25.2.55h-.488C11.59.55.955 11.186.955 24.306c0 3.666 3.509 6.312 7.033 5.305l7.634-2.18 7.868 2.247a5.334 5.334 0 002.93 0l7.868-2.248z" fill="#839393"/><path fill-rule="evenodd" clip-rule="evenodd" d="M14.84 19.713c.898-4.67 3.034-11.026 7.934-18.025l4.369 3.058c-4.434 6.334-6.297 11.978-7.066 15.975-.385 2.002-.496 3.598-.515 4.667-.009.534.005.937.02 1.192.007.127.014.218.02.27l.004.048v-.007s-.002-.005-2.648.326c-2.646.33-2.646.328-2.646.328v-.003l-.001-.007-.002-.016-.005-.045a13.25 13.25 0 01-.047-.589 21.38 21.38 0 01-.027-1.589c.023-1.348.162-3.252.61-5.583z" fill="#839393"/><path fill-rule="evenodd" clip-rule="evenodd" d="M35.07 19.713c-.898-4.67-3.034-11.026-7.934-18.025l-4.369 3.058c4.434 6.334 6.297 11.978 7.066 15.975.385 2.002.497 3.598.515 4.667.01.534-.005.937-.02 1.192a8.121 8.121 0 01-.019.27l-.005.048v-.003l.001-.004s0-.005 2.647.326c2.646.33 2.646.328 2.646.328v-.003l.001-.007.002-.016.005-.045a13.25 13.25 0 00.047-.589c.022-.38.04-.915.028-1.589-.024-1.348-.162-3.252-.61-5.583zm-10.115 7.504a2.667 2.667 0 012.667 2.667v16a8 8 0 11-16 0v-1.778a2.667 2.667 0 015.333 0v1.778a2.667 2.667 0 105.333 0v-16a2.667 2.667 0 012.667-2.667z" fill="#839393"/></svg>