<svg width="8" height="14" fill="none" xmlns="http://www.w3.org/2000/svg"><path d="M6.767 7.42c.573.526.86 1.168.86 1.926 0 .447-.107.875-.32 1.283a2.542 2.542 0 01-.89.977c-.409.292-.914.482-1.517.569v1.269H3.602V12.16c-.894-.165-1.575-.588-2.042-1.268a3.191 3.191 0 01-.685-1.998h1.313c0 .486.155.909.466 1.268.409.535.933.803 1.575.803.642 0 1.147-.16 1.517-.482.35-.291.525-.68.525-1.166 0-.438-.2-.807-.598-1.109a3.419 3.419 0 00-.642-.393 8.32 8.32 0 00-.86-.394 19.68 19.68 0 01-.715-.306c-.826-.36-1.429-.773-1.808-1.24-.389-.457-.583-1.016-.583-1.677 0-.846.306-1.55.918-2.115a3.173 3.173 0 011.62-.758V.042H4.9v1.312c.7.156 1.274.491 1.72 1.006.526.584.793 1.264.803 2.042H6.067c0-.457-.16-.87-.482-1.24-.379-.427-.83-.641-1.356-.641-.544 0-.987.17-1.327.51-.32.302-.481.686-.481 1.152 0 .37.107.68.32.934.244.32.764.641 1.561.962.68.272 1.191.5 1.531.686.34.175.652.393.934.656z" fill="#839393"/></svg>