<svg width="27" height="27" fill="none" xmlns="http://www.w3.org/2000/svg"><path d="M12 .75c-2.747 0-5 2.253-5 5s2.253 5 5 5 5-2.253 5-5-2.253-5-5-5zm0 2.5c1.396 0 2.5 1.104 2.5 2.5s-1.104 2.5-2.5 2.5a2.481 2.481 0 01-2.5-2.5 2.48 2.48 0 012.5-2.5zM22 12v1.499C20.75 13.874 19.5 15 19.5 17c0 2.375 2 3.125 3.25 3.625 1.5.625 1.75.75 1.75 1.375s-.25 1.25-1.25 1.25S22 22.625 22 22h-2.5c0 1.25.75 3.001 2.5 3.501V27h2.5v-1.499c1.75-.5 2.5-2.251 2.5-3.501 0-2.375-2-3.125-3.25-3.625C22.25 17.75 22 17.625 22 17c0-1 .625-1.25 1.25-1.25 1 0 1.25.625 1.25 1.25H27c0-1.25-.75-3.001-2.5-3.501V12H22zm-10 2.5C8.074 14.5.75 16.433.75 20.125v3.125h16.387A6.153 6.153 0 0117 22v-1.25H3.25v-.625C3.25 19.039 7.885 17 12 17c1.7 0 3.486.351 5 .837V17c0-.596.084-1.166.23-1.709-1.846-.524-3.773-.791-5.23-.791z" fill="#D39825"/></svg>