<svg width="16" height="16" fill="none" xmlns="http://www.w3.org/2000/svg"><path d="M.5.5v5h5v-5h-5zm6.667 0v1.667h1.666V.5H7.167zM10.5.5v5h5v-5h-5zM2.167 2.167h1.666v1.666H2.167V2.167zm10 0h1.666v1.666h-1.666V2.167zm-5 1.666V5.5h1.666V3.833H7.167zM.5 7.167v1.666h1.667V7.167H.5zm3.333 0v1.666H5.5V7.167H3.833zm3.334 0v1.666h1.666V7.167H7.167zm1.666 1.666V10.5H10.5V8.833H8.833zm1.667 0h1.667V7.167H10.5v1.666zm1.667 0V10.5h1.666V8.833h-1.666zm1.666 0H15.5V7.167h-1.667v1.666zm0 1.667v1.667H15.5V10.5h-1.667zm0 1.667h-1.666v1.666h1.666v-1.666zm0 1.666V15.5H15.5v-1.667h-1.667zm-1.666 0H10.5V15.5h1.667v-1.667zm-1.667 0v-1.666H8.833v1.666H10.5zm-1.667 0H7.167V15.5h1.666v-1.667zm0-1.666V10.5H7.167v1.667h1.666zm1.667 0h1.667V10.5H10.5v1.667zM.5 10.5v5h5v-5h-5zm1.667 1.667h1.666v1.666H2.167v-1.666z" fill="#D39825"/></svg>