<svg width="16" height="16" fill="none" xmlns="http://www.w3.org/2000/svg"><path d="M6.874.125c-1.654 0-3 1.345-3 3 0 1.654 1.346 3 3 3 1.655 0 3-1.346 3-3 0-1.655-1.345-3-3-3zm0 1.5c.827 0 1.5.673 1.5 1.5s-.673 1.5-1.5 1.5-1.5-.673-1.5-1.5.673-1.5 1.5-1.5zm4.5 5.25c-1.36 0-2.58.613-3.407 1.573a9.798 9.798 0 00-1.093-.073c-2.356 0-6.75 1.159-6.75 3.375v1.875h7.362a4.507 4.507 0 003.888 2.25c2.475 0 4.5-2.025 4.5-4.5s-2.025-4.5-4.5-4.5zm-.75 2.25h1.5v1.5h1.5v1.5h-1.5v1.5h-1.5v-1.5h-1.5v-1.5h1.5v-1.5zm-3.75.75c.085 0 .172.013.258.016a4.453 4.453 0 00-.258 1.484c0 .256.027.505.069.75H1.624v-.375c0-.652 2.781-1.875 5.25-1.875z" fill="#EDF1F2"/></svg>