<svg width="18" height="18" fill="none" xmlns="http://www.w3.org/2000/svg"><path d="M15.864 5.411a7.408 7.408 0 00-2.598-1.655c.553-1.591 2.505-2.173 2.505-2.173a16.79 16.79 0 00-9.592-1.4A7.776 7.776 0 001.716 2.8 6.803 6.803 0 00.02 7.833a6.852 6.852 0 002.454 4.723c.457.385 1.478.981 1.495 1.013-.672 1.673-2.813 2.131-2.813 2.131a18.012 18.012 0 006.631 2.19 14.23 14.23 0 003.189.038 8.147 8.147 0 004.845-2.346A7.1 7.1 0 0018 10.508a7.1 7.1 0 00-2.135-5.096h-.001zm-1.302 9.063a6.834 6.834 0 01-3.925 1.788 12.59 12.59 0 01-2.717-.012 13.006 13.006 0 01-3.224-.866 4.725 4.725 0 001.146-1.612 1.22 1.22 0 00-.039-.983 5.195 5.195 0 011.09-6.071c2.167-2.064 5.62-2.046 7.765.044a5.439 5.439 0 01-.096 7.712z" fill="#F3C31C"/></svg>