<svg xmlns="http://www.w3.org/2000/svg" width="53" height="60" viewBox="0 0 53 60"><defs><filter id="cn3ya" width="200%" height="200%" x="-50%" y="-50%"><feGaussianBlur in="SourceGraphic" result="FeGaussianBlur1054Out" stdDeviation="0.45 0.45"/></filter><mask id="cn3yb"><path fill="#fff" d="M26.037.091c14.38 0 26.038 11.633 26.038 25.982 0 8.234-3.838 15.573-9.827 20.333h.77L27.582 59.962 9.056 46.406h.77C3.839 41.646 0 34.306 0 26.073 0 11.724 11.657.09 26.037.09z"/></mask><mask id="cn3yd" width="2" height="2" x="-1" y="-1"><path fill="#fff" d="M15 17h22v19H15z"/><path d="M16.981 23.814h5.66a1.13 1.13 0 0 1 1.132 1.13v9.037a1.13 1.13 0 0 1-1.132 1.129h-5.66a1.13 1.13 0 0 1-1.132-1.129v-9.037c0-.624.507-1.13 1.132-1.13zm0 3.39h1.132v-2.26H16.98zm2.264 0h1.132v-2.26h-1.132zm2.264 0h1.132v-2.26H21.51zm-4.528 3.388h1.132v-2.26H16.98zm2.264 0h1.132v-2.26h-1.132zm2.264 0h1.132v-2.26H21.51zm-4.528 3.388h1.132v-2.258H16.98zm4.528 0h1.132v-2.258H21.51zm4.529-16.944h8.986c.625 0 1.202.506 1.202 1.13v15.815s-.436 1.129-1.061 1.129h-9.127s-1.133-.505-1.133-1.129V18.167c0-.625.507-1.13 1.133-1.13zm0 6.778h2.264v-2.26h-2.264zm0 3.39h2.264v-2.26h-2.264zm0 3.388h2.264v-2.26h-2.264zm0 3.388h2.264v-2.258h-2.264zm6.792-10.166h2.264v-2.26H32.83zm0 3.39h2.264v-2.26H32.83zm0 3.388h2.264v-2.26H32.83zm0 3.388h2.264v-2.258H32.83zm-6.792-13.555h2.264v-2.26h-2.264zm6.792 0h2.264v-2.26H32.83zm-3.396 3.39h2.264v-2.26h-2.264zm0 3.388h2.264v-2.26h-2.264zm0 3.39h2.264v-2.26h-2.264zm0-10.168h2.264v-2.26h-2.264z"/></mask><filter id="cn3yc" width="42.7" height="39.7" x="5" y="7" filterUnits="userSpaceOnUse"><feOffset dx=".7" dy=".7" in="SourceGraphic" result="FeOffset1074Out"/><feGaussianBlur in="FeOffset1074Out" result="FeGaussianBlur1075Out" stdDeviation="0 0"/></filter></defs><g><g><path fill="#fff" d="M26.037.091c14.38 0 26.038 11.633 26.038 25.982 0 8.234-3.838 15.573-9.827 20.333h.77L27.582 59.962 9.056 46.406h.77C3.839 41.646 0 34.306 0 26.073 0 11.724 11.657.09 26.037.09z"/><path fill-opacity=".5" stroke="#000" stroke-opacity=".5" stroke-width=".4" d="M-.9 60.9V-.9h54.8v61.8zM26.037.091C11.657.091 0 11.724 0 26.073c0 8.234 3.838 15.573 9.827 20.333h-.77L27.58 59.962 43.02 46.406h-.77c5.988-4.76 9.826-12.1 9.826-20.333C52.075 11.724 40.418.09 26.037.09z" filter="url(#cn3ya)" mask="url(&quot;#cn3yb&quot;)"/></g><g><path fill="#f39c12" d="M26.038 6.87c10.628 0 19.245 8.597 19.245 19.203 0 10.607-8.616 19.204-19.245 19.204-10.63 0-19.246-8.597-19.246-19.204 0-10.606 8.617-19.203 19.246-19.203z"/></g><g><g filter="url(#cn3yc)"><path fill="none" d="M16.981 23.814h5.66a1.13 1.13 0 0 1 1.132 1.13v9.037a1.13 1.13 0 0 1-1.132 1.129h-5.66a1.13 1.13 0 0 1-1.132-1.129v-9.037c0-.624.507-1.13 1.132-1.13zm0 3.39h1.132v-2.26H16.98zm2.264 0h1.132v-2.26h-1.132zm2.264 0h1.132v-2.26H21.51zm-4.528 3.388h1.132v-2.26H16.98zm2.264 0h1.132v-2.26h-1.132zm2.264 0h1.132v-2.26H21.51zm-4.528 3.388h1.132v-2.258H16.98zm4.528 0h1.132v-2.258H21.51zm4.529-16.944h8.986c.625 0 1.202.506 1.202 1.13v15.815s-.436 1.129-1.061 1.129h-9.127s-1.133-.505-1.133-1.129V18.167c0-.625.507-1.13 1.133-1.13zm0 6.778h2.264v-2.26h-2.264zm0 3.39h2.264v-2.26h-2.264zm0 3.388h2.264v-2.26h-2.264zm0 3.388h2.264v-2.258h-2.264zm6.792-10.166h2.264v-2.26H32.83zm0 3.39h2.264v-2.26H32.83zm0 3.388h2.264v-2.26H32.83zm0 3.388h2.264v-2.258H32.83zm-6.792-13.555h2.264v-2.26h-2.264zm6.792 0h2.264v-2.26H32.83zm-3.396 3.39h2.264v-2.26h-2.264zm0 3.388h2.264v-2.26h-2.264zm0 3.39h2.264v-2.26h-2.264zm0-10.168h2.264v-2.26h-2.264z" mask="url(&quot;#cn3yd&quot;)"/><path fill-opacity=".25" d="M16.981 23.814h5.66a1.13 1.13 0 0 1 1.132 1.13v9.037a1.13 1.13 0 0 1-1.132 1.129h-5.66a1.13 1.13 0 0 1-1.132-1.129v-9.037c0-.624.507-1.13 1.132-1.13zm0 3.39h1.132v-2.26H16.98zm2.264 0h1.132v-2.26h-1.132zm2.264 0h1.132v-2.26H21.51zm-4.528 3.388h1.132v-2.26H16.98zm2.264 0h1.132v-2.26h-1.132zm2.264 0h1.132v-2.26H21.51zm-4.528 3.388h1.132v-2.258H16.98zm4.528 0h1.132v-2.258H21.51zm4.529-16.944h8.986c.625 0 1.202.506 1.202 1.13v15.815s-.436 1.129-1.061 1.129h-9.127s-1.133-.505-1.133-1.129V18.167c0-.625.507-1.13 1.133-1.13zm0 6.778h2.264v-2.26h-2.264zm0 3.39h2.264v-2.26h-2.264zm0 3.388h2.264v-2.26h-2.264zm0 3.388h2.264v-2.258h-2.264zm6.792-10.166h2.264v-2.26H32.83zm0 3.39h2.264v-2.26H32.83zm0 3.388h2.264v-2.26H32.83zm0 3.388h2.264v-2.258H32.83zm-6.792-13.555h2.264v-2.26h-2.264zm6.792 0h2.264v-2.26H32.83zm-3.396 3.39h2.264v-2.26h-2.264zm0 3.388h2.264v-2.26h-2.264zm0 3.39h2.264v-2.26h-2.264zm0-10.168h2.264v-2.26h-2.264z"/></g><path fill="#614261" d="M16.981 23.814h5.66a1.13 1.13 0 0 1 1.132 1.13v9.037a1.13 1.13 0 0 1-1.132 1.129h-5.66a1.13 1.13 0 0 1-1.132-1.129v-9.037c0-.624.507-1.13 1.132-1.13zm0 3.39h1.132v-2.26H16.98zm2.264 0h1.132v-2.26h-1.132zm2.264 0h1.132v-2.26H21.51zm-4.528 3.388h1.132v-2.26H16.98zm2.264 0h1.132v-2.26h-1.132zm2.264 0h1.132v-2.26H21.51zm-4.528 3.388h1.132v-2.258H16.98zm4.528 0h1.132v-2.258H21.51zm4.529-16.944h8.986c.625 0 1.202.506 1.202 1.13v15.815s-.436 1.129-1.061 1.129h-9.127s-1.133-.505-1.133-1.129V18.167c0-.625.507-1.13 1.133-1.13zm0 6.778h2.264v-2.26h-2.264zm0 3.39h2.264v-2.26h-2.264zm0 3.388h2.264v-2.26h-2.264zm0 3.388h2.264v-2.258h-2.264zm6.792-10.166h2.264v-2.26H32.83zm0 3.39h2.264v-2.26H32.83zm0 3.388h2.264v-2.26H32.83zm0 3.388h2.264v-2.258H32.83zm-6.792-13.555h2.264v-2.26h-2.264zm6.792 0h2.264v-2.26H32.83zm-3.396 3.39h2.264v-2.26h-2.264zm0 3.388h2.264v-2.26h-2.264zm0 3.39h2.264v-2.26h-2.264zm0-10.168h2.264v-2.26h-2.264z"/><path fill="#fff" d="M16.981 23.814h5.66a1.13 1.13 0 0 1 1.132 1.13v9.037a1.13 1.13 0 0 1-1.132 1.129h-5.66a1.13 1.13 0 0 1-1.132-1.129v-9.037c0-.624.507-1.13 1.132-1.13zm0 3.39h1.132v-2.26H16.98zm2.264 0h1.132v-2.26h-1.132zm2.264 0h1.132v-2.26H21.51zm-4.528 3.388h1.132v-2.26H16.98zm2.264 0h1.132v-2.26h-1.132zm2.264 0h1.132v-2.26H21.51zm-4.528 3.388h1.132v-2.258H16.98zm4.528 0h1.132v-2.258H21.51zm4.529-16.944h8.986c.625 0 1.202.506 1.202 1.13v15.815s-.436 1.129-1.061 1.129h-9.127s-1.133-.505-1.133-1.129V18.167c0-.625.507-1.13 1.133-1.13zm0 6.778h2.264v-2.26h-2.264zm0 3.39h2.264v-2.26h-2.264zm0 3.388h2.264v-2.26h-2.264zm0 3.388h2.264v-2.258h-2.264zm6.792-10.166h2.264v-2.26H32.83zm0 3.39h2.264v-2.26H32.83zm0 3.388h2.264v-2.26H32.83zm0 3.388h2.264v-2.258H32.83zm-6.792-13.555h2.264v-2.26h-2.264zm6.792 0h2.264v-2.26H32.83zm-3.396 3.39h2.264v-2.26h-2.264zm0 3.388h2.264v-2.26h-2.264zm0 3.39h2.264v-2.26h-2.264zm0-10.168h2.264v-2.26h-2.264z"/></g></g></svg>